<?xml version="1.0" encoding="UTF-8" standalone="no"?>
<!DOCTYPE svg PUBLIC "-//W3C//DTD SVG 1.1//EN"
 "http://www.w3.org/Graphics/SVG/1.1/DTD/svg11.dtd">
<!-- Generated by graphviz version 2.43.0 (0)
 -->
<!-- Title: network Pages: 1 -->
<svg width="757pt" height="759pt"
 viewBox="0.00 0.00 757.36 758.91" xmlns="http://www.w3.org/2000/svg" xmlns:xlink="http://www.w3.org/1999/xlink">
<g id="graph0" class="graph" transform="scale(1 1) rotate(0) translate(4 754.91)">
<title>network</title>
<polygon fill="white" stroke="transparent" points="-4,4 -4,-754.91 753.36,-754.91 753.36,4 -4,4"/>
<!-- 0 -->
<g id="node1" class="node">
<title>0</title>
<ellipse fill="none" stroke="black" cx="34.89" cy="-266.68" rx="21.4" ry="21.4"/>
<text text-anchor="middle" x="34.89" y="-262.98" font-family="Times,serif" font-size="14.00">A1</text>
</g>
<!-- 63 -->
<g id="node33" class="node">
<title>63</title>
<polygon fill="none" stroke="black" points="404.68,-367.35 404.68,-382.26 386.57,-392.81 360.96,-392.81 342.85,-382.26 342.85,-367.35 360.96,-356.81 386.57,-356.81 404.68,-367.35"/>
<polygon fill="none" stroke="black" points="408.68,-365.05 408.68,-384.56 387.65,-396.81 359.88,-396.81 338.85,-384.56 338.85,-365.05 359.88,-352.81 387.65,-352.81 408.68,-365.05"/>
<polygon fill="none" stroke="black" points="412.67,-362.75 412.67,-386.86 388.73,-400.81 358.8,-400.81 334.86,-386.86 334.86,-362.75 358.8,-348.81 388.73,-348.81 412.67,-362.75"/>
<text text-anchor="middle" x="373.76" y="-371.11" font-family="Times,serif" font-size="14.00">OUT</text>
</g>
<!-- 0&#45;&gt;63 -->
<g id="edge1" class="edge">
<title>0&#45;&gt;63</title>
<path fill="none" stroke="green" stroke-width="1.17" d="M55.32,-273.2C108.12,-290.05 250.17,-335.37 325.44,-359.39"/>
<polygon fill="green" stroke="green" stroke-width="1.17" points="324.57,-362.78 335.16,-362.49 326.69,-356.11 324.57,-362.78"/>
</g>
<!-- 1 -->
<g id="node2" class="node">
<title>1</title>
<ellipse fill="none" stroke="black" cx="666.17" cy="-341.62" rx="20.6" ry="20.6"/>
<text text-anchor="middle" x="666.17" y="-337.92" font-family="Times,serif" font-size="14.00">B2</text>
</g>
<!-- 1&#45;&gt;63 -->
<g id="edge2" class="edge">
<title>1&#45;&gt;63</title>
<path fill="none" stroke="green" stroke-width="1.17" d="M645.14,-344.01C598.96,-349.25 487.66,-361.88 422.85,-369.24"/>
<polygon fill="green" stroke="green" stroke-width="1.17" points="422.41,-365.76 412.87,-370.37 423.2,-372.72 422.41,-365.76"/>
</g>
<!-- 2 -->
<g id="node3" class="node">
<title>2</title>
<ellipse fill="none" stroke="black" cx="300.06" cy="-20.8" rx="20.6" ry="20.6"/>
<text text-anchor="middle" x="300.06" y="-17.1" font-family="Times,serif" font-size="14.00">C3</text>
</g>
<!-- 2&#45;&gt;63 -->
<g id="edge3" class="edge">
<title>2&#45;&gt;63</title>
<path fill="none" stroke="green" stroke-width="1.17" d="M304.34,-41.36C316.4,-99.31 350.8,-264.51 366.18,-338.36"/>
<polygon fill="green" stroke="green" stroke-width="1.17" points="362.84,-339.5 368.3,-348.57 369.69,-338.07 362.84,-339.5"/>
</g>
<!-- 3 -->
<g id="node4" class="node">
<title>3</title>
<ellipse fill="none" stroke="black" cx="217.88" cy="-682.71" rx="21.4" ry="21.4"/>
<text text-anchor="middle" x="217.88" y="-679.01" font-family="Times,serif" font-size="14.00">D4</text>
</g>
<!-- 3&#45;&gt;63 -->
<g id="edge4" class="edge">
<title>3&#45;&gt;63</title>
<path fill="none" stroke="green" stroke-width="1.17" d="M227.63,-663.45C253.29,-612.75 323.01,-475.05 356,-409.89"/>
<polygon fill="green" stroke="green" stroke-width="1.17" points="359.2,-411.32 360.6,-400.82 352.96,-408.16 359.2,-411.32"/>
</g>
<!-- 4 -->
<g id="node5" class="node">
<title>4</title>
<ellipse fill="none" stroke="black" cx="565.27" cy="-375.6" rx="20.6" ry="20.6"/>
<text text-anchor="middle" x="565.27" y="-371.9" font-family="Times,serif" font-size="14.00">E5</text>
</g>
<!-- 4&#45;&gt;63 -->
<g id="edge5" class="edge">
<title>4&#45;&gt;63</title>
<path fill="none" stroke="green" stroke-width="1.17" d="M544.41,-375.51C515.49,-375.39 462.33,-375.17 423,-375.01"/>
<polygon fill="green" stroke="green" stroke-width="1.17" points="422.83,-371.51 412.82,-374.97 422.8,-378.51 422.83,-371.51"/>
</g>
<!-- 5 -->
<g id="node6" class="node">
<title>5</title>
<ellipse fill="none" stroke="black" cx="114.11" cy="-420.94" rx="20.3" ry="20.3"/>
<text text-anchor="middle" x="114.11" y="-417.24" font-family="Times,serif" font-size="14.00">F6</text>
</g>
<!-- 5&#45;&gt;63 -->
<g id="edge6" class="edge">
<title>5&#45;&gt;63</title>
<path fill="none" stroke="green" stroke-width="1.17" d="M134.05,-417.4C174.49,-410.21 267.19,-393.74 324.73,-383.52"/>
<polygon fill="green" stroke="green" stroke-width="1.17" points="325.47,-386.94 334.7,-381.75 324.24,-380.05 325.47,-386.94"/>
</g>
<!-- 6 -->
<g id="node7" class="node">
<title>6</title>
<ellipse fill="none" stroke="black" cx="110.33" cy="-124.82" rx="21.4" ry="21.4"/>
<text text-anchor="middle" x="110.33" y="-121.12" font-family="Times,serif" font-size="14.00">G7</text>
</g>
<!-- 6&#45;&gt;63 -->
<g id="edge7" class="edge">
<title>6&#45;&gt;63</title>
<path fill="none" stroke="green" stroke-width="1.17" d="M126.02,-139.71C168.65,-180.17 287.2,-292.66 343.42,-346.01"/>
<polygon fill="green" stroke="green" stroke-width="1.17" points="341.27,-348.79 350.93,-353.14 346.09,-343.72 341.27,-348.79"/>
</g>
<!-- 7 -->
<g id="node8" class="node">
<title>7</title>
<ellipse fill="none" stroke="black" cx="650.65" cy="-187.77" rx="21.4" ry="21.4"/>
<text text-anchor="middle" x="650.65" y="-184.07" font-family="Times,serif" font-size="14.00">H8</text>
</g>
<!-- 7&#45;&gt;63 -->
<g id="edge8" class="edge">
<title>7&#45;&gt;63</title>
<path fill="none" stroke="green" stroke-width="1.17" d="M632.48,-200.04C587.42,-230.49 469.82,-309.92 409.93,-350.37"/>
<polygon fill="green" stroke="green" stroke-width="1.17" points="407.86,-347.55 401.53,-356.05 411.78,-353.35 407.86,-347.55"/>
</g>
<!-- 8 -->
<g id="node9" class="node">
<title>8</title>
<ellipse fill="none" stroke="black" cx="271.61" cy="-100.75" rx="21.4" ry="21.4"/>
<text text-anchor="middle" x="271.61" y="-97.05" font-family="Times,serif" font-size="14.00">G1</text>
</g>
<!-- 8&#45;&gt;63 -->
<g id="edge9" class="edge">
<title>8&#45;&gt;63</title>
<path fill="none" stroke="green" stroke-width="1.17" d="M279.12,-120.9C296.33,-167.06 338.78,-280.93 360.5,-339.21"/>
<polygon fill="green" stroke="green" stroke-width="1.17" points="357.28,-340.59 364.05,-348.74 363.84,-338.15 357.28,-340.59"/>
</g>
<!-- 9 -->
<g id="node10" class="node">
<title>9</title>
<ellipse fill="none" stroke="black" cx="513.67" cy="-74.91" rx="21.4" ry="21.4"/>
<text text-anchor="middle" x="513.67" y="-71.21" font-family="Times,serif" font-size="14.00">H2</text>
</g>
<!-- 9&#45;&gt;63 -->
<g id="edge10" class="edge">
<title>9&#45;&gt;63</title>
<path fill="none" stroke="green" stroke-width="1.17" d="M504.49,-94.59C481.3,-144.29 420.11,-275.45 390.41,-339.12"/>
<polygon fill="green" stroke="green" stroke-width="1.17" points="387.15,-337.83 386.1,-348.37 393.5,-340.79 387.15,-337.83"/>
</g>
<!-- 10 -->
<g id="node11" class="node">
<title>10</title>
<ellipse fill="none" stroke="black" cx="382.6" cy="-141.6" rx="21.4" ry="21.4"/>
<text text-anchor="middle" x="382.6" y="-137.9" font-family="Times,serif" font-size="14.00">A3</text>
</g>
<!-- 10&#45;&gt;63 -->
<g id="edge11" class="edge">
<title>10&#45;&gt;63</title>
<path fill="none" stroke="green" stroke-width="1.17" d="M381.78,-163.12C380.27,-203.14 377,-289.41 375.14,-338.57"/>
<polygon fill="green" stroke="green" stroke-width="1.17" points="371.63,-338.64 374.75,-348.76 378.63,-338.9 371.63,-338.64"/>
</g>
<!-- 11 -->
<g id="node12" class="node">
<title>11</title>
<ellipse fill="none" stroke="black" cx="20.8" cy="-375.99" rx="20.6" ry="20.6"/>
<text text-anchor="middle" x="20.8" y="-372.29" font-family="Times,serif" font-size="14.00">B4</text>
</g>
<!-- 11&#45;&gt;63 -->
<g id="edge12" class="edge">
<title>11&#45;&gt;63</title>
<path fill="none" stroke="green" stroke-width="1.17" d="M41.82,-375.92C96.86,-375.73 246.32,-375.23 324.54,-374.97"/>
<polygon fill="green" stroke="green" stroke-width="1.17" points="324.64,-378.47 334.63,-374.94 324.62,-371.47 324.64,-378.47"/>
</g>
<!-- 12 -->
<g id="node13" class="node">
<title>12</title>
<ellipse fill="none" stroke="black" cx="728.56" cy="-417.76" rx="20.6" ry="20.6"/>
<text text-anchor="middle" x="728.56" y="-414.06" font-family="Times,serif" font-size="14.00">C5</text>
</g>
<!-- 12&#45;&gt;63 -->
<g id="edge13" class="edge">
<title>12&#45;&gt;63</title>
<path fill="none" stroke="green" stroke-width="1.17" d="M707.69,-415.23C652.53,-408.56 501.74,-390.3 423.04,-380.77"/>
<polygon fill="green" stroke="green" stroke-width="1.17" points="423.24,-377.27 412.89,-379.54 422.4,-384.22 423.24,-377.27"/>
</g>
<!-- 13 -->
<g id="node14" class="node">
<title>13</title>
<ellipse fill="none" stroke="black" cx="685.94" cy="-508.44" rx="21.4" ry="21.4"/>
<text text-anchor="middle" x="685.94" y="-504.74" font-family="Times,serif" font-size="14.00">D6</text>
</g>
<!-- 13&#45;&gt;63 -->
<g id="edge14" class="edge">
<title>13&#45;&gt;63</title>
<path fill="none" stroke="green" stroke-width="1.17" d="M665.94,-499.88C616.2,-478.59 486.01,-422.86 417.44,-393.5"/>
<polygon fill="green" stroke="green" stroke-width="1.17" points="418.76,-390.26 408.19,-389.54 416.01,-396.7 418.76,-390.26"/>
</g>
<!-- 14 -->
<g id="node15" class="node">
<title>14</title>
<ellipse fill="none" stroke="black" cx="410.45" cy="-730.12" rx="20.6" ry="20.6"/>
<text text-anchor="middle" x="410.45" y="-726.42" font-family="Times,serif" font-size="14.00">E7</text>
</g>
<!-- 14&#45;&gt;63 -->
<g id="edge15" class="edge">
<title>14&#45;&gt;63</title>
<path fill="none" stroke="green" stroke-width="1.17" d="M408.29,-709.22C402.26,-650.8 385.17,-485.28 377.53,-411.31"/>
<polygon fill="green" stroke="green" stroke-width="1.17" points="380.99,-410.67 376.48,-401.08 374.02,-411.39 380.99,-410.67"/>
</g>
<!-- 15 -->
<g id="node16" class="node">
<title>15</title>
<ellipse fill="none" stroke="black" cx="501.88" cy="-212.51" rx="20.3" ry="20.3"/>
<text text-anchor="middle" x="501.88" y="-208.81" font-family="Times,serif" font-size="14.00">F8</text>
</g>
<!-- 15&#45;&gt;63 -->
<g id="edge16" class="edge">
<title>15&#45;&gt;63</title>
<path fill="none" stroke="green" stroke-width="1.17" d="M489.36,-228.37C468.49,-254.81 426.2,-308.38 398.97,-342.88"/>
<polygon fill="green" stroke="green" stroke-width="1.17" points="396.18,-340.76 392.73,-350.78 401.67,-345.1 396.18,-340.76"/>
</g>
<!-- 16 -->
<g id="node17" class="node">
<title>16</title>
<ellipse fill="none" stroke="black" cx="601.13" cy="-106.87" rx="20.6" ry="20.6"/>
<text text-anchor="middle" x="601.13" y="-103.17" font-family="Times,serif" font-size="14.00">E1</text>
</g>
<!-- 16&#45;&gt;63 -->
<g id="edge17" class="edge">
<title>16&#45;&gt;63</title>
<path fill="none" stroke="green" stroke-width="1.17" d="M587.58,-122.82C550.88,-166.08 448.99,-286.16 400.31,-343.52"/>
<polygon fill="green" stroke="green" stroke-width="1.17" points="397.61,-341.29 393.81,-351.18 402.95,-345.82 397.61,-341.29"/>
</g>
<!-- 17 -->
<g id="node18" class="node">
<title>17</title>
<ellipse fill="none" stroke="black" cx="112.5" cy="-627.8" rx="20.3" ry="20.3"/>
<text text-anchor="middle" x="112.5" y="-624.1" font-family="Times,serif" font-size="14.00">F2</text>
</g>
<!-- 17&#45;&gt;63 -->
<g id="edge18" class="edge">
<title>17&#45;&gt;63</title>
<path fill="none" stroke="green" stroke-width="1.17" d="M127.29,-613.47C168.94,-573.14 287.8,-458.05 343.84,-403.79"/>
<polygon fill="green" stroke="green" stroke-width="1.17" points="346.56,-406.02 351.31,-396.55 341.69,-400.99 346.56,-406.02"/>
</g>
<!-- 18 -->
<g id="node19" class="node">
<title>18</title>
<ellipse fill="none" stroke="black" cx="41.2" cy="-502.64" rx="21.4" ry="21.4"/>
<text text-anchor="middle" x="41.2" y="-498.94" font-family="Times,serif" font-size="14.00">G3</text>
</g>
<!-- 18&#45;&gt;63 -->
<g id="edge19" class="edge">
<title>18&#45;&gt;63</title>
<path fill="none" stroke="green" stroke-width="1.17" d="M61.26,-494.93C113.54,-474.84 255.01,-420.45 328.33,-392.27"/>
<polygon fill="green" stroke="green" stroke-width="1.17" points="329.7,-395.49 337.78,-388.64 327.19,-388.96 329.7,-395.49"/>
</g>
<!-- 19 -->
<g id="node20" class="node">
<title>19</title>
<ellipse fill="none" stroke="black" cx="154.16" cy="-555.7" rx="21.4" ry="21.4"/>
<text text-anchor="middle" x="154.16" y="-552" font-family="Times,serif" font-size="14.00">H4</text>
</g>
<!-- 19&#45;&gt;63 -->
<g id="edge20" class="edge">
<title>19&#45;&gt;63</title>
<path fill="none" stroke="green" stroke-width="1.17" d="M171.03,-541.8C207.39,-511.85 293.7,-440.75 341.14,-401.68"/>
<polygon fill="green" stroke="green" stroke-width="1.17" points="343.47,-404.29 348.97,-395.23 339.02,-398.89 343.47,-404.29"/>
</g>
<!-- 20 -->
<g id="node21" class="node">
<title>20</title>
<ellipse fill="none" stroke="black" cx="215.69" cy="-327.24" rx="21.4" ry="21.4"/>
<text text-anchor="middle" x="215.69" y="-323.54" font-family="Times,serif" font-size="14.00">A5</text>
</g>
<!-- 20&#45;&gt;63 -->
<g id="edge21" class="edge">
<title>20&#45;&gt;63</title>
<path fill="none" stroke="green" stroke-width="1.17" d="M236.35,-333.46C258.68,-340.18 295.06,-351.12 324.78,-360.07"/>
<polygon fill="green" stroke="green" stroke-width="1.17" points="323.99,-363.48 334.57,-363.01 326,-356.78 323.99,-363.48"/>
</g>
<!-- 21 -->
<g id="node22" class="node">
<title>21</title>
<ellipse fill="none" stroke="black" cx="120.07" cy="-236.84" rx="20.6" ry="20.6"/>
<text text-anchor="middle" x="120.07" y="-233.14" font-family="Times,serif" font-size="14.00">B6</text>
</g>
<!-- 21&#45;&gt;63 -->
<g id="edge22" class="edge">
<title>21&#45;&gt;63</title>
<path fill="none" stroke="green" stroke-width="1.17" d="M138.72,-246.98C179.7,-269.27 278.32,-322.9 333.91,-353.13"/>
<polygon fill="green" stroke="green" stroke-width="1.17" points="332.32,-356.25 342.78,-357.96 335.67,-350.1 332.32,-356.25"/>
</g>
<!-- 22 -->
<g id="node23" class="node">
<title>22</title>
<ellipse fill="none" stroke="black" cx="516.16" cy="-625.08" rx="20.6" ry="20.6"/>
<text text-anchor="middle" x="516.16" y="-621.38" font-family="Times,serif" font-size="14.00">C7</text>
</g>
<!-- 22&#45;&gt;63 -->
<g id="edge23" class="edge">
<title>22&#45;&gt;63</title>
<path fill="none" stroke="green" stroke-width="1.17" d="M505.69,-606.68C482.07,-565.17 424.33,-463.68 393.66,-409.78"/>
<polygon fill="green" stroke="green" stroke-width="1.17" points="396.61,-407.88 388.62,-400.92 390.53,-411.34 396.61,-407.88"/>
</g>
<!-- 23 -->
<g id="node24" class="node">
<title>23</title>
<ellipse fill="none" stroke="black" cx="568.94" cy="-697.34" rx="21.4" ry="21.4"/>
<text text-anchor="middle" x="568.94" y="-693.64" font-family="Times,serif" font-size="14.00">D8</text>
</g>
<!-- 23&#45;&gt;63 -->
<g id="edge24" class="edge">
<title>23&#45;&gt;63</title>
<path fill="none" stroke="green" stroke-width="1.17" d="M557.6,-678.6C525.83,-626.1 435.6,-476.99 394.55,-409.16"/>
<polygon fill="green" stroke="green" stroke-width="1.17" points="397.5,-407.27 389.33,-400.53 391.51,-410.9 397.5,-407.27"/>
</g>
<!-- 24 -->
<g id="node25" class="node">
<title>24</title>
<ellipse fill="none" stroke="black" cx="305.34" cy="-715.61" rx="20.6" ry="20.6"/>
<text text-anchor="middle" x="305.34" y="-711.91" font-family="Times,serif" font-size="14.00">C1</text>
</g>
<!-- 24&#45;&gt;63 -->
<g id="edge25" class="edge">
<title>24&#45;&gt;63</title>
<path fill="none" stroke="green" stroke-width="1.17" d="M309.47,-695.06C320.76,-638.82 352.27,-481.87 366.56,-410.7"/>
<polygon fill="green" stroke="green" stroke-width="1.17" points="370,-411.34 368.54,-400.85 363.14,-409.96 370,-411.34"/>
</g>
<!-- 25 -->
<g id="node26" class="node">
<title>25</title>
<ellipse fill="none" stroke="black" cx="426.43" cy="-26.56" rx="21.4" ry="21.4"/>
<text text-anchor="middle" x="426.43" y="-22.86" font-family="Times,serif" font-size="14.00">D2</text>
</g>
<!-- 25&#45;&gt;63 -->
<g id="edge26" class="edge">
<title>25&#45;&gt;63</title>
<path fill="none" stroke="green" stroke-width="1.17" d="M423.21,-47.82C414.46,-105.67 390.16,-266.41 379.22,-338.73"/>
<polygon fill="green" stroke="green" stroke-width="1.17" points="375.74,-338.33 377.71,-348.74 382.66,-339.37 375.74,-338.33"/>
</g>
<!-- 26 -->
<g id="node27" class="node">
<title>26</title>
<ellipse fill="none" stroke="black" cx="645.58" cy="-589.44" rx="20.6" ry="20.6"/>
<text text-anchor="middle" x="645.58" y="-585.74" font-family="Times,serif" font-size="14.00">E3</text>
</g>
<!-- 26&#45;&gt;63 -->
<g id="edge27" class="edge">
<title>26&#45;&gt;63</title>
<path fill="none" stroke="green" stroke-width="1.17" d="M628.99,-576.34C585.18,-541.74 465.74,-447.43 407.12,-401.14"/>
<polygon fill="green" stroke="green" stroke-width="1.17" points="409.28,-398.39 399.27,-394.94 404.95,-403.89 409.28,-398.39"/>
</g>
<!-- 27 -->
<g id="node28" class="node">
<title>27</title>
<ellipse fill="none" stroke="black" cx="273.51" cy="-539.14" rx="20.3" ry="20.3"/>
<text text-anchor="middle" x="273.51" y="-535.44" font-family="Times,serif" font-size="14.00">F4</text>
</g>
<!-- 27&#45;&gt;63 -->
<g id="edge28" class="edge">
<title>27&#45;&gt;63</title>
<path fill="none" stroke="green" stroke-width="1.17" d="M284.05,-521.86C300.24,-495.31 331.59,-443.94 352.6,-409.5"/>
<polygon fill="green" stroke="green" stroke-width="1.17" points="355.74,-411.06 357.96,-400.7 349.77,-407.42 355.74,-411.06"/>
</g>
<!-- 28 -->
<g id="node29" class="node">
<title>28</title>
<ellipse fill="none" stroke="black" cx="195" cy="-137.07" rx="21.4" ry="21.4"/>
<text text-anchor="middle" x="195" y="-133.37" font-family="Times,serif" font-size="14.00">G5</text>
</g>
<!-- 28&#45;&gt;63 -->
<g id="edge29" class="edge">
<title>28&#45;&gt;63</title>
<path fill="none" stroke="green" stroke-width="1.17" d="M208.14,-154.55C237.93,-194.17 310.96,-291.28 349.32,-342.3"/>
<polygon fill="green" stroke="green" stroke-width="1.17" points="346.58,-344.48 355.39,-350.37 352.18,-340.28 346.58,-344.48"/>
</g>
<!-- 29 -->
<g id="node30" class="node">
<title>29</title>
<ellipse fill="none" stroke="black" cx="711.73" cy="-263.84" rx="21.4" ry="21.4"/>
<text text-anchor="middle" x="711.73" y="-260.14" font-family="Times,serif" font-size="14.00">H6</text>
</g>
<!-- 29&#45;&gt;63 -->
<g id="edge30" class="edge">
<title>29&#45;&gt;63</title>
<path fill="none" stroke="green" stroke-width="1.17" d="M691.35,-270.53C638.63,-287.84 496.66,-334.46 421.67,-359.08"/>
<polygon fill="green" stroke="green" stroke-width="1.17" points="420.4,-355.81 411.99,-362.26 422.58,-362.46 420.4,-355.81"/>
</g>
<!-- 30 -->
<g id="node31" class="node">
<title>30</title>
<ellipse fill="none" stroke="black" cx="398.15" cy="-622.85" rx="21.4" ry="21.4"/>
<text text-anchor="middle" x="398.15" y="-619.15" font-family="Times,serif" font-size="14.00">A7</text>
</g>
<!-- 30&#45;&gt;63 -->
<g id="edge31" class="edge">
<title>30&#45;&gt;63</title>
<path fill="none" stroke="green" stroke-width="1.17" d="M396.03,-601.28C391.84,-558.71 382.49,-463.53 377.33,-411.13"/>
<polygon fill="green" stroke="green" stroke-width="1.17" points="380.79,-410.55 376.33,-400.94 373.83,-411.23 380.79,-410.55"/>
</g>
<!-- 31 -->
<g id="node32" class="node">
<title>31</title>
<ellipse fill="none" stroke="black" cx="506.12" cy="-504.04" rx="20.6" ry="20.6"/>
<text text-anchor="middle" x="506.12" y="-500.34" font-family="Times,serif" font-size="14.00">B8</text>
</g>
<!-- 31&#45;&gt;63 -->
<g id="edge32" class="edge">
<title>31&#45;&gt;63</title>
<path fill="none" stroke="green" stroke-width="1.17" d="M491.2,-489.47C470.06,-468.83 430.96,-430.65 403.71,-404.04"/>
<polygon fill="green" stroke="green" stroke-width="1.17" points="405.96,-401.35 396.36,-396.87 401.07,-406.36 405.96,-401.35"/>
</g>
</g>
</svg>
