<?xml version="1.0" encoding="UTF-8" standalone="no"?>
<!DOCTYPE svg PUBLIC "-//W3C//DTD SVG 1.1//EN"
 "http://www.w3.org/Graphics/SVG/1.1/DTD/svg11.dtd">
<!-- Generated by graphviz version 2.43.0 (0)
 -->
<!-- Title: network Pages: 1 -->
<svg width="1256pt" height="1319pt"
 viewBox="0.00 0.00 1256.35 1318.64" xmlns="http://www.w3.org/2000/svg" xmlns:xlink="http://www.w3.org/1999/xlink">
<g id="graph0" class="graph" transform="scale(1 1) rotate(0) translate(4 1314.64)">
<title>network</title>
<polygon fill="white" stroke="transparent" points="-4,4 -4,-1314.64 1252.35,-1314.64 1252.35,4 -4,4"/>
<!-- 0 -->
<g id="node1" class="node">
<title>0</title>
<ellipse fill="none" stroke="black" cx="935.44" cy="-1098.89" rx="21.4" ry="21.4"/>
<text text-anchor="middle" x="935.44" y="-1095.19" font-family="Times,serif" font-size="14.00">A1</text>
</g>
<!-- 51 -->
<g id="node43" class="node">
<title>51</title>
<polygon fill="none" stroke="black" points="897.35,-1216.08 852.35,-1216.08 852.35,-1171.08 897.35,-1171.08 897.35,-1216.08"/>
<text text-anchor="start" x="860.35" y="-1190.78" font-family="Times,serif" font-size="16.00">L1</text>
<text text-anchor="start" x="879.35" y="-1190.78" font-family="Times,serif" baseline-shift="sub" font-size="11.00">12</text>
</g>
<!-- 0&#45;&gt;51 -->
<g id="edge56" class="edge">
<title>0&#45;&gt;51</title>
<path fill="none" stroke="green" stroke-width="7.62" d="M923.76,-1117.15C915.53,-1130 904.33,-1147.51 894.71,-1162.53"/>
<polygon fill="green" stroke="green" stroke-width="7.62" points="889.05,-1159.02 889.27,-1171.03 900.28,-1166.2 889.05,-1159.02"/>
</g>
<!-- 58 -->
<g id="node50" class="node">
<title>58</title>
<polygon fill="none" stroke="black" points="1003.06,-1025.63 963.06,-999.63 1003.06,-973.63 1043.06,-999.63 1003.06,-1025.63"/>
<text text-anchor="start" x="991.06" y="-996.83" font-family="Times,serif" font-size="16.00">L2</text>
<text text-anchor="start" x="1010.06" y="-996.83" font-family="Times,serif" baseline-shift="sub" font-size="11.00">3</text>
</g>
<!-- 0&#45;&gt;58 -->
<g id="edge11" class="edge">
<title>0&#45;&gt;58</title>
<path fill="none" stroke="red" stroke-width="1.49" d="M947.53,-1081.15C957.88,-1065.95 972.95,-1043.84 984.77,-1026.48"/>
<polygon fill="red" stroke="red" stroke-width="1.49" points="987.88,-1028.13 990.62,-1017.9 982.1,-1024.19 987.88,-1028.13"/>
</g>
<!-- 1 -->
<g id="node2" class="node">
<title>1</title>
<ellipse fill="none" stroke="black" cx="242.8" cy="-978.98" rx="20.6" ry="20.6"/>
<text text-anchor="middle" x="242.8" y="-975.28" font-family="Times,serif" font-size="14.00">B2</text>
</g>
<!-- 43 -->
<g id="node36" class="node">
<title>43</title>
<polygon fill="none" stroke="black" points="351.59,-948.06 311.59,-948.06 311.59,-908.06 351.59,-908.06 351.59,-948.06"/>
<text text-anchor="start" x="319.59" y="-925.26" font-family="Times,serif" font-size="16.00">L1</text>
<text text-anchor="start" x="338.59" y="-925.26" font-family="Times,serif" baseline-shift="sub" font-size="11.00">4</text>
</g>
<!-- 1&#45;&gt;43 -->
<g id="edge7" class="edge">
<title>1&#45;&gt;43</title>
<path fill="none" stroke="green" stroke-width="9.19" d="M263.08,-973.69C274.84,-968.32 289.81,-960.12 302.77,-952.09"/>
<polygon fill="green" stroke="green" stroke-width="9.19" points="307.27,-958.76 311.35,-946.6 298.6,-945.22 307.27,-958.76"/>
</g>
<!-- 1&#45;&gt;43 -->
<g id="edge26" class="edge">
<title>1&#45;&gt;43</title>
<path fill="none" stroke="red" stroke-width="1.36" d="M257.6,-964.14C269.69,-955.64 287.09,-945.38 301.99,-937.84"/>
<polygon fill="red" stroke="red" stroke-width="1.36" points="303.86,-940.82 311.35,-933.33 300.82,-934.52 303.86,-940.82"/>
</g>
<!-- 2 -->
<g id="node3" class="node">
<title>2</title>
<ellipse fill="none" stroke="black" cx="366.47" cy="-236.26" rx="20.6" ry="20.6"/>
<text text-anchor="middle" x="366.47" y="-232.56" font-family="Times,serif" font-size="14.00">C3</text>
</g>
<!-- 48 -->
<g id="node41" class="node">
<title>48</title>
<polygon fill="none" stroke="black" points="438.32,-136.21 398.32,-136.21 398.32,-96.21 438.32,-96.21 438.32,-136.21"/>
<text text-anchor="start" x="406.32" y="-113.41" font-family="Times,serif" font-size="16.00">L1</text>
<text text-anchor="start" x="425.32" y="-113.41" font-family="Times,serif" baseline-shift="sub" font-size="11.00">9</text>
</g>
<!-- 2&#45;&gt;48 -->
<g id="edge5" class="edge">
<title>2&#45;&gt;48</title>
<path fill="none" stroke="green" stroke-width="6.59" d="M374.8,-216.98C383.13,-197.69 396.04,-167.79 405.65,-145.56"/>
<polygon fill="green" stroke="green" stroke-width="6.59" points="410.99,-147.72 409.66,-136.25 400.41,-143.15 410.99,-147.72"/>
</g>
<!-- 55 -->
<g id="node47" class="node">
<title>55</title>
<polygon fill="none" stroke="black" points="350.01,-395.21 310.01,-369.21 350.01,-343.21 390.01,-369.21 350.01,-395.21"/>
<text text-anchor="start" x="338.01" y="-366.41" font-family="Times,serif" font-size="16.00">L2</text>
<text text-anchor="start" x="357.01" y="-366.41" font-family="Times,serif" baseline-shift="sub" font-size="11.00">0</text>
</g>
<!-- 2&#45;&gt;55 -->
<g id="edge23" class="edge">
<title>2&#45;&gt;55</title>
<path fill="none" stroke="red" stroke-width="9.12" d="M363.89,-257.04C361.32,-277.87 357.3,-310.3 354.25,-334.95"/>
<polygon fill="red" stroke="red" stroke-width="9.12" points="346.32,-334.07 353.01,-344.98 362.15,-336.03 346.32,-334.07"/>
</g>
<!-- 3 -->
<g id="node4" class="node">
<title>3</title>
<ellipse fill="none" stroke="black" cx="1035.76" cy="-489.98" rx="21.4" ry="21.4"/>
<text text-anchor="middle" x="1035.76" y="-486.28" font-family="Times,serif" font-size="14.00">D4</text>
</g>
<!-- 53 -->
<g id="node45" class="node">
<title>53</title>
<polygon fill="none" stroke="black" points="945.52,-497.89 900.52,-497.89 900.52,-452.89 945.52,-452.89 945.52,-497.89"/>
<text text-anchor="start" x="908.52" y="-472.59" font-family="Times,serif" font-size="16.00">L1</text>
<text text-anchor="start" x="927.52" y="-472.59" font-family="Times,serif" baseline-shift="sub" font-size="11.00">14</text>
</g>
<!-- 3&#45;&gt;53 -->
<g id="edge8" class="edge">
<title>3&#45;&gt;53</title>
<path fill="none" stroke="red" stroke-width="2.86" d="M1014.29,-487.2C997.69,-485.05 974.43,-482.04 955.54,-479.6"/>
<polygon fill="red" stroke="red" stroke-width="2.86" points="955.94,-476.12 945.57,-478.31 955.04,-483.06 955.94,-476.12"/>
</g>
<!-- 4 -->
<g id="node5" class="node">
<title>4</title>
<ellipse fill="none" stroke="black" cx="809.95" cy="-437.67" rx="20.6" ry="20.6"/>
<text text-anchor="middle" x="809.95" y="-433.97" font-family="Times,serif" font-size="14.00">E5</text>
</g>
<!-- 40 -->
<g id="node33" class="node">
<title>40</title>
<polygon fill="none" stroke="black" points="686.06,-446.8 646.06,-446.8 646.06,-406.8 686.06,-406.8 686.06,-446.8"/>
<text text-anchor="start" x="654.06" y="-424" font-family="Times,serif" font-size="16.00">L1</text>
<text text-anchor="start" x="673.06" y="-424" font-family="Times,serif" baseline-shift="sub" font-size="11.00">1</text>
</g>
<!-- 4&#45;&gt;40 -->
<g id="edge9" class="edge">
<title>4&#45;&gt;40</title>
<path fill="none" stroke="green" stroke-width="3.07" d="M789.03,-436.09C764.56,-434.24 723.88,-431.17 696.06,-429.07"/>
<polygon fill="green" stroke="green" stroke-width="3.07" points="696.32,-425.58 686.08,-428.31 695.79,-432.56 696.32,-425.58"/>
</g>
<!-- 4&#45;&gt;53 -->
<g id="edge6" class="edge">
<title>4&#45;&gt;53</title>
<path fill="none" stroke="green" stroke-width="2.45" d="M829.91,-444.33C846.64,-449.91 870.88,-458 890.42,-464.52"/>
<polygon fill="green" stroke="green" stroke-width="2.45" points="889.56,-467.92 900.16,-467.76 891.78,-461.28 889.56,-467.92"/>
</g>
<!-- 5 -->
<g id="node6" class="node">
<title>5</title>
<ellipse fill="none" stroke="black" cx="722.43" cy="-856.16" rx="20.3" ry="20.3"/>
<text text-anchor="middle" x="722.43" y="-852.46" font-family="Times,serif" font-size="14.00">F6</text>
</g>
<!-- 44 -->
<g id="node37" class="node">
<title>44</title>
<polygon fill="none" stroke="black" points="687.87,-776.26 647.87,-776.26 647.87,-736.26 687.87,-736.26 687.87,-776.26"/>
<text text-anchor="start" x="655.87" y="-753.46" font-family="Times,serif" font-size="16.00">L1</text>
<text text-anchor="start" x="674.87" y="-753.46" font-family="Times,serif" baseline-shift="sub" font-size="11.00">5</text>
</g>
<!-- 5&#45;&gt;44 -->
<g id="edge33" class="edge">
<title>5&#45;&gt;44</title>
<path fill="none" stroke="green" stroke-width="6.97" d="M712.68,-838.3C704.66,-823.62 693.14,-802.53 683.79,-785.41"/>
<polygon fill="green" stroke="green" stroke-width="6.97" points="689,-782.23 678.86,-776.37 678.3,-788.07 689,-782.23"/>
</g>
<!-- 7 -->
<g id="node7" class="node">
<title>7</title>
<ellipse fill="none" stroke="black" cx="730.22" cy="-310.22" rx="21.4" ry="21.4"/>
<text text-anchor="middle" x="730.22" y="-306.52" font-family="Times,serif" font-size="14.00">H8</text>
</g>
<!-- 7&#45;&gt;40 -->
<g id="edge42" class="edge">
<title>7&#45;&gt;40</title>
<path fill="none" stroke="red" stroke-width="6.9" d="M719.77,-329.21C709.56,-347.76 693.89,-376.24 682.1,-397.66"/>
<polygon fill="red" stroke="red" stroke-width="6.9" points="676.69,-394.97 677.16,-406.64 687.27,-400.79 676.69,-394.97"/>
</g>
<!-- 52 -->
<g id="node44" class="node">
<title>52</title>
<polygon fill="none" stroke="black" points="768.45,-200.14 723.45,-200.14 723.45,-155.14 768.45,-155.14 768.45,-200.14"/>
<text text-anchor="start" x="731.45" y="-174.84" font-family="Times,serif" font-size="16.00">L1</text>
<text text-anchor="start" x="750.45" y="-174.84" font-family="Times,serif" baseline-shift="sub" font-size="11.00">13</text>
</g>
<!-- 7&#45;&gt;52 -->
<g id="edge21" class="edge">
<title>7&#45;&gt;52</title>
<path fill="none" stroke="red" stroke-width="3.52" d="M732.75,-288.92C735.27,-267.65 739.18,-234.7 742.09,-210.16"/>
<polygon fill="red" stroke="red" stroke-width="3.52" points="745.57,-210.56 743.27,-200.22 738.62,-209.74 745.57,-210.56"/>
</g>
<!-- 8 -->
<g id="node8" class="node">
<title>8</title>
<ellipse fill="none" stroke="black" cx="937.75" cy="-1289.19" rx="21.4" ry="21.4"/>
<text text-anchor="middle" x="937.75" y="-1285.49" font-family="Times,serif" font-size="14.00">G1</text>
</g>
<!-- 8&#45;&gt;51 -->
<g id="edge22" class="edge">
<title>8&#45;&gt;51</title>
<path fill="none" stroke="red" stroke-width="3.38" d="M925.92,-1271.21C917.35,-1258.19 905.55,-1240.24 895.45,-1224.89"/>
<polygon fill="red" stroke="red" stroke-width="3.38" points="898.15,-1222.64 889.73,-1216.21 892.31,-1226.48 898.15,-1222.64"/>
</g>
<!-- 9 -->
<g id="node9" class="node">
<title>9</title>
<ellipse fill="none" stroke="black" cx="989.39" cy="-881.23" rx="21.4" ry="21.4"/>
<text text-anchor="middle" x="989.39" y="-877.53" font-family="Times,serif" font-size="14.00">H2</text>
</g>
<!-- 39 -->
<g id="node32" class="node">
<title>39</title>
<polygon fill="none" stroke="black" points="916.19,-835.24 876.19,-835.24 876.19,-795.24 916.19,-795.24 916.19,-835.24"/>
<text text-anchor="start" x="884.19" y="-812.44" font-family="Times,serif" font-size="16.00">L1</text>
<text text-anchor="start" x="903.19" y="-812.44" font-family="Times,serif" baseline-shift="sub" font-size="11.00">0</text>
</g>
<!-- 9&#45;&gt;39 -->
<g id="edge34" class="edge">
<title>9&#45;&gt;39</title>
<path fill="none" stroke="green" stroke-width="9.41" d="M971.86,-868.81C958.52,-859.36 939.87,-846.16 924.43,-835.23"/>
<polygon fill="green" stroke="green" stroke-width="9.41" points="929.15,-828.49 916.23,-829.43 919.64,-841.93 929.15,-828.49"/>
</g>
<!-- 46 -->
<g id="node39" class="node">
<title>46</title>
<polygon fill="none" stroke="black" points="1064.33,-807.58 1024.33,-807.58 1024.33,-767.58 1064.33,-767.58 1064.33,-807.58"/>
<text text-anchor="start" x="1032.33" y="-784.78" font-family="Times,serif" font-size="16.00">L1</text>
<text text-anchor="start" x="1051.33" y="-784.78" font-family="Times,serif" baseline-shift="sub" font-size="11.00">7</text>
</g>
<!-- 9&#45;&gt;46 -->
<g id="edge19" class="edge">
<title>9&#45;&gt;46</title>
<path fill="none" stroke="green" stroke-width="9.1" d="M1000.25,-862.72C1007.97,-849.57 1018.49,-831.64 1027.31,-816.59"/>
<polygon fill="green" stroke="green" stroke-width="9.1" points="1034.36,-820.32 1032.55,-807.67 1020.63,-812.26 1034.36,-820.32"/>
</g>
<!-- 9&#45;&gt;58 -->
<g id="edge44" class="edge">
<title>9&#45;&gt;58</title>
<path fill="none" stroke="green" stroke-width="5.33" d="M991.87,-902.67C993.87,-920.03 996.74,-944.84 999.07,-965.01"/>
<polygon fill="green" stroke="green" stroke-width="5.33" points="994.45,-965.68 1000.23,-975.08 1003.72,-964.61 994.45,-965.68"/>
</g>
<!-- 10 -->
<g id="node10" class="node">
<title>10</title>
<ellipse fill="none" stroke="black" cx="509.8" cy="-138.35" rx="21.4" ry="21.4"/>
<text text-anchor="middle" x="509.8" y="-134.65" font-family="Times,serif" font-size="14.00">A3</text>
</g>
<!-- 10&#45;&gt;48 -->
<g id="edge36" class="edge">
<title>10&#45;&gt;48</title>
<path fill="none" stroke="red" stroke-width="4.54" d="M488.58,-133.22C476.67,-130.33 461.61,-126.69 448.49,-123.51"/>
<polygon fill="red" stroke="red" stroke-width="4.54" points="449.13,-119.58 438.48,-121.09 447.27,-127.31 449.13,-119.58"/>
</g>
<!-- 54 -->
<g id="node46" class="node">
<title>54</title>
<polygon fill="none" stroke="black" points="613.86,-240.69 568.86,-240.69 568.86,-195.69 613.86,-195.69 613.86,-240.69"/>
<text text-anchor="start" x="576.86" y="-215.39" font-family="Times,serif" font-size="16.00">L1</text>
<text text-anchor="start" x="595.86" y="-215.39" font-family="Times,serif" baseline-shift="sub" font-size="11.00">15</text>
</g>
<!-- 10&#45;&gt;54 -->
<g id="edge25" class="edge">
<title>10&#45;&gt;54</title>
<path fill="none" stroke="red" stroke-width="5.69" d="M525.14,-153.37C535.3,-163.32 548.98,-176.71 561.26,-188.73"/>
<polygon fill="red" stroke="red" stroke-width="5.69" points="558.06,-192.56 568.69,-196 565.03,-185.45 558.06,-192.56"/>
</g>
<!-- 11 -->
<g id="node11" class="node">
<title>11</title>
<ellipse fill="none" stroke="black" cx="520.69" cy="-914.18" rx="20.6" ry="20.6"/>
<text text-anchor="middle" x="520.69" y="-910.48" font-family="Times,serif" font-size="14.00">B4</text>
</g>
<!-- 62 -->
<g id="node53" class="node">
<title>62</title>
<polygon fill="none" stroke="black" points="421.6,-895.52 381.6,-869.52 421.6,-843.52 461.6,-869.52 421.6,-895.52"/>
<text text-anchor="start" x="409.6" y="-866.72" font-family="Times,serif" font-size="16.00">L2</text>
<text text-anchor="start" x="428.6" y="-866.72" font-family="Times,serif" baseline-shift="sub" font-size="11.00">7</text>
</g>
<!-- 11&#45;&gt;62 -->
<g id="edge13" class="edge">
<title>11&#45;&gt;62</title>
<path fill="none" stroke="red" stroke-width="9.73" d="M501.59,-905.57C488.36,-899.61 470.41,-891.52 454.86,-884.51"/>
<polygon fill="red" stroke="red" stroke-width="9.73" points="458.17,-876.67 445.56,-880.32 451.17,-892.19 458.17,-876.67"/>
</g>
<!-- 12 -->
<g id="node12" class="node">
<title>12</title>
<ellipse fill="none" stroke="black" cx="422.17" cy="-760.8" rx="20.6" ry="20.6"/>
<text text-anchor="middle" x="422.17" y="-757.1" font-family="Times,serif" font-size="14.00">C5</text>
</g>
<!-- 12&#45;&gt;62 -->
<g id="edge1" class="edge">
<title>12&#45;&gt;62</title>
<path fill="none" stroke="red" stroke-width="3.65" d="M422.06,-781.76C421.98,-796.27 421.88,-815.97 421.79,-833.03"/>
<polygon fill="red" stroke="red" stroke-width="3.65" points="418.29,-833.22 421.74,-843.24 425.29,-833.26 418.29,-833.22"/>
</g>
<!-- 13 -->
<g id="node13" class="node">
<title>13</title>
<ellipse fill="none" stroke="black" cx="761.45" cy="-1179.56" rx="21.4" ry="21.4"/>
<text text-anchor="middle" x="761.45" y="-1175.86" font-family="Times,serif" font-size="14.00">D6</text>
</g>
<!-- 13&#45;&gt;51 -->
<g id="edge35" class="edge">
<title>13&#45;&gt;51</title>
<path fill="none" stroke="green" stroke-width="6.21" d="M781.59,-1187.46C798.31,-1191.07 822.43,-1194.31 841.95,-1195.71"/>
<polygon fill="green" stroke="green" stroke-width="6.21" points="841.66,-1201.14 851.96,-1196.28 842.28,-1190.29 841.66,-1201.14"/>
</g>
<!-- 13&#45;&gt;51 -->
<g id="edge53" class="edge">
<title>13&#45;&gt;51</title>
<path fill="none" stroke="red" stroke-width="2.82" d="M782.91,-1176.81C799.6,-1177.37 823.04,-1179.98 842.07,-1183.26"/>
<polygon fill="red" stroke="red" stroke-width="2.82" points="841.65,-1186.74 852.13,-1185.14 842.94,-1179.86 841.65,-1186.74"/>
</g>
<!-- 15 -->
<g id="node14" class="node">
<title>15</title>
<ellipse fill="none" stroke="black" cx="61.66" cy="-617.42" rx="20.3" ry="20.3"/>
<text text-anchor="middle" x="61.66" y="-613.72" font-family="Times,serif" font-size="14.00">F8</text>
</g>
<!-- 45 -->
<g id="node38" class="node">
<title>45</title>
<polygon fill="none" stroke="black" points="194.3,-632.6 154.3,-632.6 154.3,-592.6 194.3,-592.6 194.3,-632.6"/>
<text text-anchor="start" x="162.3" y="-609.8" font-family="Times,serif" font-size="16.00">L1</text>
<text text-anchor="start" x="181.3" y="-609.8" font-family="Times,serif" baseline-shift="sub" font-size="11.00">6</text>
</g>
<!-- 15&#45;&gt;45 -->
<g id="edge16" class="edge">
<title>15&#45;&gt;45</title>
<path fill="none" stroke="red" stroke-width="8.81" d="M81.8,-616.56C99.07,-615.82 124.22,-614.74 143.93,-613.9"/>
<polygon fill="red" stroke="red" stroke-width="8.81" points="144.3,-621.6 153.96,-613.47 143.64,-606.19 144.3,-621.6"/>
</g>
<!-- 16 -->
<g id="node15" class="node">
<title>16</title>
<ellipse fill="none" stroke="black" cx="738.33" cy="-497.42" rx="20.6" ry="20.6"/>
<text text-anchor="middle" x="738.33" y="-493.72" font-family="Times,serif" font-size="14.00">E1</text>
</g>
<!-- 16&#45;&gt;40 -->
<g id="edge30" class="edge">
<title>16&#45;&gt;40</title>
<path fill="none" stroke="green" stroke-width="1.18" d="M723.35,-482.79C714.71,-474.33 703.56,-463.44 693.4,-453.51"/>
<polygon fill="green" stroke="green" stroke-width="1.18" points="695.82,-450.99 686.23,-446.5 690.93,-456 695.82,-450.99"/>
</g>
<!-- 17 -->
<g id="node16" class="node">
<title>17</title>
<ellipse fill="none" stroke="black" cx="348.26" cy="-20.15" rx="20.3" ry="20.3"/>
<text text-anchor="middle" x="348.26" y="-16.45" font-family="Times,serif" font-size="14.00">F2</text>
</g>
<!-- 17&#45;&gt;48 -->
<g id="edge12" class="edge">
<title>17&#45;&gt;48</title>
<path fill="none" stroke="green" stroke-width="8.65" d="M360.15,-36.44C370.39,-50.48 385.4,-71.07 397.61,-87.82"/>
<polygon fill="green" stroke="green" stroke-width="8.65" points="391.69,-92.55 403.7,-96.17 403.92,-83.63 391.69,-92.55"/>
</g>
<!-- 20 -->
<g id="node17" class="node">
<title>20</title>
<ellipse fill="none" stroke="black" cx="76.35" cy="-533.25" rx="21.4" ry="21.4"/>
<text text-anchor="middle" x="76.35" y="-529.55" font-family="Times,serif" font-size="14.00">A5</text>
</g>
<!-- 20&#45;&gt;45 -->
<g id="edge20" class="edge">
<title>20&#45;&gt;45</title>
<path fill="none" stroke="red" stroke-width="7.01" d="M89.27,-550.37C103.68,-564.37 127.24,-583.78 145.94,-597.28"/>
<polygon fill="red" stroke="red" stroke-width="7.01" points="142.44,-602.31 154.15,-603.02 149.47,-592.26 142.44,-602.31"/>
</g>
<!-- 20&#45;&gt;45 -->
<g id="edge38" class="edge">
<title>20&#45;&gt;45</title>
<path fill="none" stroke="red" stroke-width="2.45" d="M95.77,-542.34C111.51,-552.89 133.64,-570.4 150.44,-585.35"/>
<polygon fill="red" stroke="red" stroke-width="2.45" points="148.46,-588.29 158.21,-592.45 153.18,-583.12 148.46,-588.29"/>
</g>
<!-- 21 -->
<g id="node18" class="node">
<title>21</title>
<ellipse fill="none" stroke="black" cx="532.77" cy="-35.07" rx="20.6" ry="20.6"/>
<text text-anchor="middle" x="532.77" y="-31.37" font-family="Times,serif" font-size="14.00">B6</text>
</g>
<!-- 21&#45;&gt;48 -->
<g id="edge24" class="edge">
<title>21&#45;&gt;48</title>
<path fill="none" stroke="red" stroke-width="9.44" d="M515.38,-47.39C497.25,-60.25 468.51,-80.63 447,-95.88"/>
<polygon fill="red" stroke="red" stroke-width="9.44" points="441.95,-89.33 438.57,-101.85 451.51,-102.81 441.95,-89.33"/>
</g>
<!-- 56 -->
<g id="node48" class="node">
<title>56</title>
<polygon fill="none" stroke="black" points="664.57,-94 624.57,-68 664.57,-42 704.57,-68 664.57,-94"/>
<text text-anchor="start" x="652.57" y="-65.2" font-family="Times,serif" font-size="16.00">L2</text>
<text text-anchor="start" x="671.57" y="-65.2" font-family="Times,serif" baseline-shift="sub" font-size="11.00">1</text>
</g>
<!-- 21&#45;&gt;56 -->
<g id="edge54" class="edge">
<title>21&#45;&gt;56</title>
<path fill="none" stroke="green" stroke-width="7.07" d="M553.07,-40.14C572.28,-44.94 601.63,-52.27 625.39,-58.21"/>
<polygon fill="green" stroke="green" stroke-width="7.07" points="623.99,-64.23 635.19,-60.65 626.98,-52.23 623.99,-64.23"/>
</g>
<!-- 22 -->
<g id="node19" class="node">
<title>22</title>
<ellipse fill="none" stroke="black" cx="1069.59" cy="-1076.44" rx="20.6" ry="20.6"/>
<text text-anchor="middle" x="1069.59" y="-1072.74" font-family="Times,serif" font-size="14.00">C7</text>
</g>
<!-- 22&#45;&gt;58 -->
<g id="edge27" class="edge">
<title>22&#45;&gt;58</title>
<path fill="none" stroke="red" stroke-width="1.97" d="M1055.8,-1060.52C1046.71,-1050.03 1034.62,-1036.07 1024.31,-1024.17"/>
<polygon fill="red" stroke="red" stroke-width="1.97" points="1026.71,-1021.59 1017.52,-1016.32 1021.42,-1026.17 1026.71,-1021.59"/>
</g>
<!-- 24 -->
<g id="node20" class="node">
<title>24</title>
<ellipse fill="none" stroke="black" cx="621.9" cy="-331.14" rx="20.6" ry="20.6"/>
<text text-anchor="middle" x="621.9" y="-327.44" font-family="Times,serif" font-size="14.00">C1</text>
</g>
<!-- 24&#45;&gt;40 -->
<g id="edge17" class="edge">
<title>24&#45;&gt;40</title>
<path fill="none" stroke="green" stroke-width="9.54" d="M630.62,-350.04C636.87,-363.57 645.4,-382.04 652.52,-397.47"/>
<polygon fill="green" stroke="green" stroke-width="9.54" points="644.98,-401.04 656.75,-406.62 660.13,-394.04 644.98,-401.04"/>
</g>
<!-- 24&#45;&gt;54 -->
<g id="edge29" class="edge">
<title>24&#45;&gt;54</title>
<path fill="none" stroke="green" stroke-width="1.66" d="M616.44,-310.95C611.91,-294.2 605.38,-270.06 600.12,-250.61"/>
<polygon fill="green" stroke="green" stroke-width="1.66" points="603.5,-249.67 597.51,-240.93 596.74,-251.5 603.5,-249.67"/>
</g>
<!-- 25 -->
<g id="node21" class="node">
<title>25</title>
<ellipse fill="none" stroke="black" cx="819.55" cy="-1283.48" rx="21.4" ry="21.4"/>
<text text-anchor="middle" x="819.55" y="-1279.78" font-family="Times,serif" font-size="14.00">D2</text>
</g>
<!-- 25&#45;&gt;51 -->
<g id="edge37" class="edge">
<title>25&#45;&gt;51</title>
<path fill="none" stroke="red" stroke-width="7.67" d="M831,-1264.85C838.05,-1253.4 847.25,-1238.43 855.41,-1225.17"/>
<polygon fill="red" stroke="red" stroke-width="7.67" points="861.33,-1228.36 860.85,-1216.33 849.9,-1221.33 861.33,-1228.36"/>
</g>
<!-- 27 -->
<g id="node22" class="node">
<title>27</title>
<ellipse fill="none" stroke="black" cx="903.71" cy="-972.1" rx="20.3" ry="20.3"/>
<text text-anchor="middle" x="903.71" y="-968.4" font-family="Times,serif" font-size="14.00">F4</text>
</g>
<!-- 27&#45;&gt;58 -->
<g id="edge32" class="edge">
<title>27&#45;&gt;58</title>
<path fill="none" stroke="red" stroke-width="8.39" d="M923.34,-977.54C935.17,-980.82 950.64,-985.11 964.81,-989.03"/>
<polygon fill="red" stroke="red" stroke-width="8.39" points="963.22,-996.21 974.82,-991.81 967.14,-982.06 963.22,-996.21"/>
</g>
<!-- 28 -->
<g id="node23" class="node">
<title>28</title>
<ellipse fill="none" stroke="black" cx="851.01" cy="-117.45" rx="21.4" ry="21.4"/>
<text text-anchor="middle" x="851.01" y="-113.75" font-family="Times,serif" font-size="14.00">G5</text>
</g>
<!-- 28&#45;&gt;52 -->
<g id="edge18" class="edge">
<title>28&#45;&gt;52</title>
<path fill="none" stroke="red" stroke-width="3.63" d="M832.23,-128.21C817.05,-136.91 795.35,-149.34 777.51,-159.56"/>
<polygon fill="red" stroke="red" stroke-width="3.63" points="775.53,-156.66 768.59,-164.67 779.01,-162.73 775.53,-156.66"/>
</g>
<!-- 29 -->
<g id="node24" class="node">
<title>29</title>
<ellipse fill="none" stroke="black" cx="1226.91" cy="-1019.98" rx="21.4" ry="21.4"/>
<text text-anchor="middle" x="1226.91" y="-1016.28" font-family="Times,serif" font-size="14.00">H6</text>
</g>
<!-- 47 -->
<g id="node40" class="node">
<title>47</title>
<polygon fill="none" stroke="black" points="1140.73,-1016.51 1100.73,-1016.51 1100.73,-976.51 1140.73,-976.51 1140.73,-1016.51"/>
<text text-anchor="start" x="1108.73" y="-993.71" font-family="Times,serif" font-size="16.00">L1</text>
<text text-anchor="start" x="1127.73" y="-993.71" font-family="Times,serif" baseline-shift="sub" font-size="11.00">8</text>
</g>
<!-- 29&#45;&gt;47 -->
<g id="edge3" class="edge">
<title>29&#45;&gt;47</title>
<path fill="none" stroke="red" stroke-width="4.72" d="M1205.93,-1015.34C1190.17,-1011.86 1168.35,-1007.04 1150.75,-1003.15"/>
<polygon fill="red" stroke="red" stroke-width="4.72" points="1151.6,-999.11 1140.94,-1000.98 1149.81,-1007.17 1151.6,-999.11"/>
</g>
<!-- 31 -->
<g id="node25" class="node">
<title>31</title>
<ellipse fill="none" stroke="black" cx="112.05" cy="-724.99" rx="20.6" ry="20.6"/>
<text text-anchor="middle" x="112.05" y="-721.29" font-family="Times,serif" font-size="14.00">B8</text>
</g>
<!-- 41 -->
<g id="node34" class="node">
<title>41</title>
<polygon fill="none" stroke="black" points="40,-818.4 0,-818.4 0,-778.4 40,-778.4 40,-818.4"/>
<text text-anchor="start" x="8" y="-795.6" font-family="Times,serif" font-size="16.00">L1</text>
<text text-anchor="start" x="27" y="-795.6" font-family="Times,serif" baseline-shift="sub" font-size="11.00">2</text>
</g>
<!-- 31&#45;&gt;41 -->
<g id="edge2" class="edge">
<title>31&#45;&gt;41</title>
<path fill="none" stroke="green" stroke-width="5.68" d="M92.73,-733.66C78.42,-743.07 58.93,-758.19 43.7,-771.52"/>
<polygon fill="green" stroke="green" stroke-width="5.68" points="40.29,-767.9 36.17,-778.28 46.93,-775.29 40.29,-767.9"/>
</g>
<!-- 31&#45;&gt;41 -->
<g id="edge51" class="edge">
<title>31&#45;&gt;41</title>
<path fill="none" stroke="green" stroke-width="4.19" d="M99.3,-741.9C86.21,-754.46 65.58,-771.25 48.6,-783.35"/>
<polygon fill="green" stroke="green" stroke-width="4.19" points="46.27,-780.51 40.12,-789.2 50.43,-786.54 46.27,-780.51"/>
</g>
<!-- 31&#45;&gt;45 -->
<g id="edge49" class="edge">
<title>31&#45;&gt;45</title>
<path fill="none" stroke="red" stroke-width="1.57" d="M122.19,-706.68C131.93,-689.1 146.8,-662.25 158.17,-641.73"/>
<polygon fill="red" stroke="red" stroke-width="1.57" points="161.33,-643.24 163.12,-632.8 155.21,-639.85 161.33,-643.24"/>
</g>
<!-- 32 -->
<g id="node26" class="node">
<title>32</title>
<ellipse fill="none" stroke="black" cx="633.58" cy="-555.57" rx="21.39" ry="21.39"/>
<ellipse fill="none" stroke="black" cx="633.58" cy="-555.57" rx="25.43" ry="25.43"/>
<text text-anchor="start" x="626.58" y="-552.77" font-family="Times,serif" font-size="16.00">b</text>
<text text-anchor="start" x="635.58" y="-552.77" font-family="Times,serif" baseline-shift="sub" font-size="11.00">0</text>
</g>
<!-- 63 -->
<g id="node54" class="node">
<title>63</title>
<polygon fill="none" stroke="black" points="570.27,-500.86 570.27,-515.77 552.16,-526.31 526.55,-526.31 508.43,-515.77 508.43,-500.86 526.55,-490.31 552.16,-490.31 570.27,-500.86"/>
<polygon fill="none" stroke="black" points="574.26,-498.55 574.26,-518.07 553.23,-530.31 525.47,-530.31 504.44,-518.07 504.44,-498.55 525.47,-486.31 553.23,-486.31 574.26,-498.55"/>
<polygon fill="none" stroke="black" points="578.26,-496.25 578.26,-520.37 554.31,-534.31 524.39,-534.31 500.44,-520.37 500.44,-496.25 524.39,-482.31 554.31,-482.31 578.26,-496.25"/>
<text text-anchor="middle" x="539.35" y="-504.61" font-family="Times,serif" font-size="14.00">OUT</text>
</g>
<!-- 32&#45;&gt;63 -->
<g id="edge40" class="edge">
<title>32&#45;&gt;63</title>
<path fill="none" stroke="green" stroke-width="9.23" d="M610.77,-544.13C601.67,-539.56 590.91,-534.16 580.53,-528.96"/>
<polygon fill="green" stroke="green" stroke-width="9.23" points="584.13,-521.73 571.57,-524.47 576.89,-536.17 584.13,-521.73"/>
</g>
<!-- 33 -->
<g id="node27" class="node">
<title>33</title>
<ellipse fill="none" stroke="black" cx="250.06" cy="-297.67" rx="21.39" ry="21.39"/>
<ellipse fill="none" stroke="black" cx="250.06" cy="-297.67" rx="25.43" ry="25.43"/>
<text text-anchor="start" x="243.06" y="-294.87" font-family="Times,serif" font-size="16.00">b</text>
<text text-anchor="start" x="252.06" y="-294.87" font-family="Times,serif" baseline-shift="sub" font-size="11.00">1</text>
</g>
<!-- 33&#45;&gt;55 -->
<g id="edge48" class="edge">
<title>33&#45;&gt;55</title>
<path fill="none" stroke="red" stroke-width="2.49" d="M270.77,-312.49C285.77,-323.23 306.19,-337.85 322.55,-349.55"/>
<polygon fill="red" stroke="red" stroke-width="2.49" points="320.51,-352.4 330.68,-355.37 324.59,-346.71 320.51,-352.4"/>
</g>
<!-- 34 -->
<g id="node28" class="node">
<title>34</title>
<ellipse fill="none" stroke="black" cx="667.59" cy="-636" rx="21.39" ry="21.39"/>
<ellipse fill="none" stroke="black" cx="667.59" cy="-636" rx="25.43" ry="25.43"/>
<text text-anchor="start" x="660.59" y="-633.2" font-family="Times,serif" font-size="16.00">b</text>
<text text-anchor="start" x="669.59" y="-633.2" font-family="Times,serif" baseline-shift="sub" font-size="11.00">2</text>
</g>
<!-- 34&#45;&gt;44 -->
<g id="edge15" class="edge">
<title>34&#45;&gt;44</title>
<path fill="none" stroke="green" stroke-width="9.83" d="M667.65,-661.5C667.69,-680.32 667.75,-706.01 667.8,-725.89"/>
<polygon fill="green" stroke="green" stroke-width="9.83" points="659.2,-725.99 667.82,-735.97 676.4,-725.95 659.2,-725.99"/>
</g>
<!-- 34&#45;&gt;63 -->
<g id="edge45" class="edge">
<title>34&#45;&gt;63</title>
<path fill="none" stroke="red" stroke-width="5.1" d="M649.49,-617.98C628.59,-597.17 593.91,-562.63 569.04,-537.88"/>
<polygon fill="red" stroke="red" stroke-width="5.1" points="571.91,-534.43 561.67,-530.53 565.61,-540.75 571.91,-534.43"/>
</g>
<!-- 35 -->
<g id="node29" class="node">
<title>35</title>
<ellipse fill="none" stroke="black" cx="482.8" cy="-589.81" rx="21.39" ry="21.39"/>
<ellipse fill="none" stroke="black" cx="482.8" cy="-589.81" rx="25.43" ry="25.43"/>
<text text-anchor="start" x="475.8" y="-587.01" font-family="Times,serif" font-size="16.00">b</text>
<text text-anchor="start" x="484.8" y="-587.01" font-family="Times,serif" baseline-shift="sub" font-size="11.00">3</text>
</g>
<!-- 35&#45;&gt;63 -->
<g id="edge31" class="edge">
<title>35&#45;&gt;63</title>
<path fill="none" stroke="green" stroke-width="8.51" d="M497.36,-568.82C503.12,-560.52 509.89,-550.77 516.29,-541.55"/>
<polygon fill="green" stroke="green" stroke-width="8.51" points="522.43,-545.75 522.02,-533.29 510.2,-537.26 522.43,-545.75"/>
</g>
<!-- 36 -->
<g id="node30" class="node">
<title>36</title>
<ellipse fill="none" stroke="black" cx="294.76" cy="-841.55" rx="21.39" ry="21.39"/>
<ellipse fill="none" stroke="black" cx="294.76" cy="-841.55" rx="25.43" ry="25.43"/>
<text text-anchor="start" x="287.76" y="-838.75" font-family="Times,serif" font-size="16.00">b</text>
<text text-anchor="start" x="296.76" y="-838.75" font-family="Times,serif" baseline-shift="sub" font-size="11.00">4</text>
</g>
<!-- 61 -->
<g id="node52" class="node">
<title>61</title>
<polygon fill="none" stroke="black" points="304.38,-743.15 264.38,-717.15 304.38,-691.15 344.38,-717.15 304.38,-743.15"/>
<text text-anchor="start" x="292.38" y="-714.35" font-family="Times,serif" font-size="16.00">L2</text>
<text text-anchor="start" x="311.38" y="-714.35" font-family="Times,serif" baseline-shift="sub" font-size="11.00">6</text>
</g>
<!-- 36&#45;&gt;61 -->
<g id="edge55" class="edge">
<title>36&#45;&gt;61</title>
<path fill="none" stroke="red" stroke-width="3.34" d="M296.71,-816.37C298.13,-797.99 300.08,-772.83 301.65,-752.45"/>
<polygon fill="red" stroke="red" stroke-width="3.34" points="305.16,-752.52 302.44,-742.28 298.18,-751.98 305.16,-752.52"/>
</g>
<!-- 37 -->
<g id="node31" class="node">
<title>37</title>
<ellipse fill="none" stroke="black" cx="298.07" cy="-589.08" rx="21.39" ry="21.39"/>
<ellipse fill="none" stroke="black" cx="298.07" cy="-589.08" rx="25.43" ry="25.43"/>
<text text-anchor="start" x="291.07" y="-586.28" font-family="Times,serif" font-size="16.00">b</text>
<text text-anchor="start" x="300.07" y="-586.28" font-family="Times,serif" baseline-shift="sub" font-size="11.00">5</text>
</g>
<!-- 37&#45;&gt;45 -->
<g id="edge57" class="edge">
<title>37&#45;&gt;45</title>
<path fill="none" stroke="red" stroke-width="8.92" d="M273.03,-593.84C253.21,-597.61 225.46,-602.88 204.43,-606.88"/>
<polygon fill="red" stroke="red" stroke-width="8.92" points="202.78,-599.24 194.41,-608.78 205.7,-614.58 202.78,-599.24"/>
</g>
<!-- 50 -->
<g id="node42" class="node">
<title>50</title>
<polygon fill="none" stroke="black" points="421.02,-514.53 376.02,-514.53 376.02,-469.53 421.02,-469.53 421.02,-514.53"/>
<text text-anchor="start" x="384.02" y="-489.23" font-family="Times,serif" font-size="16.00">L1</text>
<text text-anchor="start" x="403.02" y="-489.23" font-family="Times,serif" baseline-shift="sub" font-size="11.00">11</text>
</g>
<!-- 37&#45;&gt;50 -->
<g id="edge43" class="edge">
<title>37&#45;&gt;50</title>
<path fill="none" stroke="green" stroke-width="3.29" d="M316.5,-571.28C331.03,-557.24 351.61,-537.36 368.52,-521.02"/>
<polygon fill="green" stroke="green" stroke-width="3.29" points="371.23,-523.26 375.99,-513.8 366.37,-518.23 371.23,-523.26"/>
</g>
<!-- 37&#45;&gt;61 -->
<g id="edge10" class="edge">
<title>37&#45;&gt;61</title>
<path fill="none" stroke="green" stroke-width="4.02" d="M299.32,-614.38C300.27,-633.68 301.59,-660.49 302.65,-681.89"/>
<polygon fill="green" stroke="green" stroke-width="4.02" points="299.14,-682.08 303.14,-691.9 306.16,-681.74 299.14,-682.08"/>
</g>
<!-- 40&#45;&gt;63 -->
<g id="edge41" class="edge">
<title>40&#45;&gt;63</title>
<path fill="none" stroke="red" stroke-width="4.82" d="M645.99,-439.72C627.3,-451.74 598.99,-469.95 576.23,-484.59"/>
<polygon fill="red" stroke="red" stroke-width="4.82" points="573.95,-481.05 567.82,-490 578.51,-488.13 573.95,-481.05"/>
</g>
<!-- 42 -->
<g id="node35" class="node">
<title>42</title>
<polygon fill="none" stroke="black" points="257.14,-392.91 217.14,-392.91 217.14,-352.91 257.14,-352.91 257.14,-392.91"/>
<text text-anchor="start" x="225.14" y="-370.11" font-family="Times,serif" font-size="16.00">L1</text>
<text text-anchor="start" x="244.14" y="-370.11" font-family="Times,serif" baseline-shift="sub" font-size="11.00">3</text>
</g>
<!-- 42&#45;&gt;55 -->
<g id="edge28" class="edge">
<title>42&#45;&gt;55</title>
<path fill="none" stroke="green" stroke-width="4.61" d="M257.32,-372.24C269.7,-371.84 286.11,-371.3 301.69,-370.79"/>
<polygon fill="green" stroke="green" stroke-width="4.61" points="301.89,-374.82 311.75,-370.46 301.62,-366.76 301.89,-374.82"/>
</g>
<!-- 43&#45;&gt;62 -->
<g id="edge14" class="edge">
<title>43&#45;&gt;62</title>
<path fill="none" stroke="red" stroke-width="3.2" d="M352.01,-914.78C364.18,-906.86 379.81,-896.7 393.17,-888.01"/>
<polygon fill="red" stroke="red" stroke-width="3.2" points="395.09,-890.94 401.57,-882.55 391.27,-885.07 395.09,-890.94"/>
</g>
<!-- 60 -->
<g id="node51" class="node">
<title>60</title>
<polygon fill="none" stroke="black" points="572.33,-697.91 532.33,-671.91 572.33,-645.91 612.33,-671.91 572.33,-697.91"/>
<text text-anchor="start" x="560.33" y="-669.11" font-family="Times,serif" font-size="16.00">L2</text>
<text text-anchor="start" x="579.33" y="-669.11" font-family="Times,serif" baseline-shift="sub" font-size="11.00">5</text>
</g>
<!-- 44&#45;&gt;60 -->
<g id="edge39" class="edge">
<title>44&#45;&gt;60</title>
<path fill="none" stroke="red" stroke-width="7.39" d="M647.61,-738.38C632.87,-725.36 612.83,-707.67 597.13,-693.81"/>
<polygon fill="red" stroke="red" stroke-width="7.39" points="601.14,-688.73 589.37,-686.96 592.59,-698.42 601.14,-688.73"/>
</g>
<!-- 57 -->
<g id="node49" class="node">
<title>57</title>
<polygon fill="none" stroke="black" points="1081.06,-718 1041.06,-692 1081.06,-666 1121.06,-692 1081.06,-718"/>
<text text-anchor="start" x="1069.06" y="-689.2" font-family="Times,serif" font-size="16.00">L2</text>
<text text-anchor="start" x="1088.06" y="-689.2" font-family="Times,serif" baseline-shift="sub" font-size="11.00">2</text>
</g>
<!-- 46&#45;&gt;57 -->
<g id="edge47" class="edge">
<title>46&#45;&gt;57</title>
<path fill="none" stroke="red" stroke-width="4.44" d="M1052.12,-767.31C1057.12,-754.31 1063.7,-737.19 1069.32,-722.55"/>
<polygon fill="red" stroke="red" stroke-width="4.44" points="1073.06,-723.63 1073.03,-712.9 1065.82,-720.85 1073.06,-723.63"/>
</g>
<!-- 47&#45;&gt;58 -->
<g id="edge52" class="edge">
<title>47&#45;&gt;58</title>
<path fill="none" stroke="green" stroke-width="9.94" d="M1100.5,-997.05C1087.12,-997.4 1068.96,-997.89 1051.94,-998.34"/>
<polygon fill="green" stroke="green" stroke-width="9.94" points="1051.31,-989.66 1041.55,-998.61 1051.77,-1007.04 1051.31,-989.66"/>
</g>
<!-- 50&#45;&gt;55 -->
<g id="edge58" class="edge">
<title>50&#45;&gt;55</title>
<path fill="none" stroke="red" stroke-width="5.29" d="M389.62,-469.51C381.84,-449.81 370.48,-421.04 361.92,-399.36"/>
<polygon fill="red" stroke="red" stroke-width="5.29" points="366.18,-397.56 358.2,-389.96 357.57,-400.96 366.18,-397.56"/>
</g>
<!-- 50&#45;&gt;63 -->
<g id="edge46" class="edge">
<title>50&#45;&gt;63</title>
<path fill="none" stroke="red" stroke-width="3.42" d="M421.14,-494.65C439.7,-496.79 466.65,-499.91 490.12,-502.62"/>
<polygon fill="red" stroke="red" stroke-width="3.42" points="489.95,-506.12 500.28,-503.8 490.75,-499.17 489.95,-506.12"/>
</g>
<!-- 52&#45;&gt;56 -->
<g id="edge4" class="edge">
<title>52&#45;&gt;56</title>
<path fill="none" stroke="red" stroke-width="2.41" d="M729.09,-154.92C715.84,-137.08 697.4,-112.23 683.63,-93.67"/>
<polygon fill="red" stroke="red" stroke-width="2.41" points="686.43,-91.58 677.66,-85.64 680.81,-95.75 686.43,-91.58"/>
</g>
<!-- 60&#45;&gt;63 -->
<g id="edge50" class="edge">
<title>60&#45;&gt;63</title>
<path fill="none" stroke="red" stroke-width="8.66" d="M567.67,-648.82C562.19,-621.64 553.03,-576.18 546.61,-544.35"/>
<polygon fill="red" stroke="red" stroke-width="8.66" points="554.04,-542.84 544.64,-534.53 539.18,-545.83 554.04,-542.84"/>
</g>
</g>
</svg>
