<?xml version="1.0" encoding="UTF-8" standalone="no"?>
<!DOCTYPE svg PUBLIC "-//W3C//DTD SVG 1.1//EN"
 "http://www.w3.org/Graphics/SVG/1.1/DTD/svg11.dtd">
<!-- Generated by graphviz version 2.43.0 (0)
 -->
<!-- Title: network Pages: 1 -->
<svg width="1381pt" height="1408pt"
 viewBox="0.00 0.00 1380.66 1408.05" xmlns="http://www.w3.org/2000/svg" xmlns:xlink="http://www.w3.org/1999/xlink">
<g id="graph0" class="graph" transform="scale(1 1) rotate(0) translate(4 1404.05)">
<title>network</title>
<polygon fill="white" stroke="transparent" points="-4,4 -4,-1404.05 1376.66,-1404.05 1376.66,4 -4,4"/>
<!-- 0 -->
<g id="node1" class="node">
<title>0</title>
<ellipse fill="none" stroke="black" cx="954" cy="-76.29" rx="21.4" ry="21.4"/>
<text text-anchor="middle" x="954" y="-72.59" font-family="Times,serif" font-size="14.00">A1</text>
</g>
<!-- 58 -->
<g id="node45" class="node">
<title>58</title>
<polygon fill="none" stroke="black" points="924.05,-246.37 884.05,-220.37 924.05,-194.37 964.05,-220.37 924.05,-246.37"/>
<text text-anchor="start" x="912.05" y="-217.57" font-family="Times,serif" font-size="16.00">L2</text>
<text text-anchor="start" x="931.05" y="-217.57" font-family="Times,serif" baseline-shift="sub" font-size="11.00">3</text>
</g>
<!-- 0&#45;&gt;58 -->
<g id="edge48" class="edge">
<title>0&#45;&gt;58</title>
<path fill="none" stroke="green" stroke-width="6.74" d="M949.58,-97.54C944.68,-121.14 936.69,-159.54 930.96,-187.12"/>
<polygon fill="green" stroke="green" stroke-width="6.74" points="925.14,-186.12 928.88,-197.11 936.69,-188.52 925.14,-186.12"/>
</g>
<!-- 1 -->
<g id="node2" class="node">
<title>1</title>
<ellipse fill="none" stroke="black" cx="571.64" cy="-763.64" rx="20.6" ry="20.6"/>
<text text-anchor="middle" x="571.64" y="-759.94" font-family="Times,serif" font-size="14.00">B2</text>
</g>
<!-- 46 -->
<g id="node35" class="node">
<title>46</title>
<polygon fill="none" stroke="black" points="778.87,-792.32 738.87,-792.32 738.87,-752.32 778.87,-752.32 778.87,-792.32"/>
<text text-anchor="start" x="746.87" y="-769.52" font-family="Times,serif" font-size="16.00">L1</text>
<text text-anchor="start" x="765.87" y="-769.52" font-family="Times,serif" baseline-shift="sub" font-size="11.00">7</text>
</g>
<!-- 1&#45;&gt;46 -->
<g id="edge43" class="edge">
<title>1&#45;&gt;46</title>
<path fill="none" stroke="green" stroke-width="4.22" d="M592.76,-764.62C625.97,-766.16 690.57,-769.16 728.68,-770.92"/>
<polygon fill="green" stroke="green" stroke-width="4.22" points="728.52,-774.61 738.68,-771.39 728.87,-767.24 728.52,-774.61"/>
</g>
<!-- 56 -->
<g id="node43" class="node">
<title>56</title>
<polygon fill="none" stroke="black" points="416.68,-724.86 376.68,-698.86 416.68,-672.86 456.68,-698.86 416.68,-724.86"/>
<text text-anchor="start" x="404.68" y="-696.06" font-family="Times,serif" font-size="16.00">L2</text>
<text text-anchor="start" x="423.68" y="-696.06" font-family="Times,serif" baseline-shift="sub" font-size="11.00">1</text>
</g>
<!-- 1&#45;&gt;56 -->
<g id="edge16" class="edge">
<title>1&#45;&gt;56</title>
<path fill="none" stroke="green" stroke-width="9.27" d="M552.33,-755.57C526.93,-744.95 481.86,-726.11 450.68,-713.07"/>
<polygon fill="green" stroke="green" stroke-width="9.27" points="453.45,-705.44 441.09,-709.06 447.19,-720.41 453.45,-705.44"/>
</g>
<!-- 2 -->
<g id="node3" class="node">
<title>2</title>
<ellipse fill="none" stroke="black" cx="1179.02" cy="-20.8" rx="20.6" ry="20.6"/>
<text text-anchor="middle" x="1179.02" y="-17.1" font-family="Times,serif" font-size="14.00">C3</text>
</g>
<!-- 60 -->
<g id="node47" class="node">
<title>60</title>
<polygon fill="none" stroke="black" points="1098.11,-161.27 1058.11,-135.27 1098.11,-109.27 1138.11,-135.27 1098.11,-161.27"/>
<text text-anchor="start" x="1086.11" y="-132.47" font-family="Times,serif" font-size="16.00">L2</text>
<text text-anchor="start" x="1105.11" y="-132.47" font-family="Times,serif" baseline-shift="sub" font-size="11.00">5</text>
</g>
<!-- 2&#45;&gt;60 -->
<g id="edge5" class="edge">
<title>2&#45;&gt;60</title>
<path fill="none" stroke="green" stroke-width="9.43" d="M1166.73,-38.18C1153.44,-56.99 1132.11,-87.17 1116.75,-108.9"/>
<polygon fill="green" stroke="green" stroke-width="9.43" points="1109.82,-104.42 1110.78,-117.35 1123.29,-113.94 1109.82,-104.42"/>
</g>
<!-- 3 -->
<g id="node4" class="node">
<title>3</title>
<ellipse fill="none" stroke="black" cx="667.47" cy="-504.91" rx="21.4" ry="21.4"/>
<text text-anchor="middle" x="667.47" y="-501.21" font-family="Times,serif" font-size="14.00">D4</text>
</g>
<!-- 41 -->
<g id="node30" class="node">
<title>41</title>
<polygon fill="none" stroke="black" points="771.27,-615.53 731.27,-615.53 731.27,-575.53 771.27,-575.53 771.27,-615.53"/>
<text text-anchor="start" x="739.27" y="-592.73" font-family="Times,serif" font-size="16.00">L1</text>
<text text-anchor="start" x="758.27" y="-592.73" font-family="Times,serif" baseline-shift="sub" font-size="11.00">2</text>
</g>
<!-- 3&#45;&gt;41 -->
<g id="edge8" class="edge">
<title>3&#45;&gt;41</title>
<path fill="none" stroke="green" stroke-width="1.61" d="M682.06,-520.69C694.05,-533.65 711.3,-552.31 725.58,-567.75"/>
<polygon fill="green" stroke="green" stroke-width="1.61" points="723.38,-570.52 732.74,-575.49 728.52,-565.77 723.38,-570.52"/>
</g>
<!-- 4 -->
<g id="node5" class="node">
<title>4</title>
<ellipse fill="none" stroke="black" cx="381.55" cy="-394.05" rx="20.6" ry="20.6"/>
<text text-anchor="middle" x="381.55" y="-390.35" font-family="Times,serif" font-size="14.00">E5</text>
</g>
<!-- 43 -->
<g id="node32" class="node">
<title>43</title>
<polygon fill="none" stroke="black" points="439.31,-264.6 399.31,-264.6 399.31,-224.6 439.31,-224.6 439.31,-264.6"/>
<text text-anchor="start" x="407.31" y="-241.8" font-family="Times,serif" font-size="16.00">L1</text>
<text text-anchor="start" x="426.31" y="-241.8" font-family="Times,serif" baseline-shift="sub" font-size="11.00">4</text>
</g>
<!-- 4&#45;&gt;43 -->
<g id="edge9" class="edge">
<title>4&#45;&gt;43</title>
<path fill="none" stroke="green" stroke-width="9.83" d="M386.73,-373.58C393.19,-347.98 404.32,-303.95 411.74,-274.55"/>
<polygon fill="green" stroke="green" stroke-width="9.83" points="420.09,-276.63 414.2,-264.82 403.41,-272.41 420.09,-276.63"/>
</g>
<!-- 53 -->
<g id="node41" class="node">
<title>53</title>
<polygon fill="none" stroke="black" points="465.13,-562.61 420.13,-562.61 420.13,-517.61 465.13,-517.61 465.13,-562.61"/>
<text text-anchor="start" x="428.13" y="-537.31" font-family="Times,serif" font-size="16.00">L1</text>
<text text-anchor="start" x="447.13" y="-537.31" font-family="Times,serif" baseline-shift="sub" font-size="11.00">14</text>
</g>
<!-- 4&#45;&gt;53 -->
<g id="edge19" class="edge">
<title>4&#45;&gt;53</title>
<path fill="none" stroke="green" stroke-width="9.29" d="M389.66,-413.44C399.75,-437.57 417.11,-479.09 429.2,-507.99"/>
<polygon fill="green" stroke="green" stroke-width="9.29" points="421.72,-511.18 433.07,-517.27 436.71,-504.91 421.72,-511.18"/>
</g>
<!-- 5 -->
<g id="node6" class="node">
<title>5</title>
<ellipse fill="none" stroke="black" cx="20.15" cy="-870.59" rx="20.3" ry="20.3"/>
<text text-anchor="middle" x="20.15" y="-866.89" font-family="Times,serif" font-size="14.00">F6</text>
</g>
<!-- 57 -->
<g id="node44" class="node">
<title>57</title>
<polygon fill="none" stroke="black" points="152.23,-862.73 112.23,-836.73 152.23,-810.73 192.23,-836.73 152.23,-862.73"/>
<text text-anchor="start" x="140.23" y="-833.93" font-family="Times,serif" font-size="16.00">L2</text>
<text text-anchor="start" x="159.23" y="-833.93" font-family="Times,serif" baseline-shift="sub" font-size="11.00">2</text>
</g>
<!-- 5&#45;&gt;57 -->
<g id="edge7" class="edge">
<title>5&#45;&gt;57</title>
<path fill="none" stroke="green" stroke-width="3.68" d="M39.92,-865.52C59.32,-860.55 89.41,-852.83 113.57,-846.64"/>
<polygon fill="green" stroke="green" stroke-width="3.68" points="114.69,-849.97 123.51,-844.09 112.95,-843.19 114.69,-849.97"/>
</g>
<!-- 7 -->
<g id="node7" class="node">
<title>7</title>
<ellipse fill="none" stroke="black" cx="1015.56" cy="-256.41" rx="21.4" ry="21.4"/>
<text text-anchor="middle" x="1015.56" y="-252.71" font-family="Times,serif" font-size="14.00">H8</text>
</g>
<!-- 45 -->
<g id="node34" class="node">
<title>45</title>
<polygon fill="none" stroke="black" points="864.51,-364.78 824.51,-364.78 824.51,-324.78 864.51,-324.78 864.51,-364.78"/>
<text text-anchor="start" x="832.51" y="-341.98" font-family="Times,serif" font-size="16.00">L1</text>
<text text-anchor="start" x="851.51" y="-341.98" font-family="Times,serif" baseline-shift="sub" font-size="11.00">6</text>
</g>
<!-- 7&#45;&gt;45 -->
<g id="edge37" class="edge">
<title>7&#45;&gt;45</title>
<path fill="none" stroke="green" stroke-width="4.47" d="M996.27,-266.38C966.4,-281.81 908.76,-311.59 873.75,-329.67"/>
<polygon fill="green" stroke="green" stroke-width="4.47" points="871.61,-326.38 864.52,-334.44 875.2,-333.33 871.61,-326.38"/>
</g>
<!-- 7&#45;&gt;60 -->
<g id="edge44" class="edge">
<title>7&#45;&gt;60</title>
<path fill="none" stroke="green" stroke-width="1.76" d="M1027.74,-238.54C1041.5,-218.35 1064.04,-185.27 1079.89,-162.01"/>
<polygon fill="green" stroke="green" stroke-width="1.76" points="1082.87,-163.85 1085.61,-153.62 1077.09,-159.91 1082.87,-163.85"/>
</g>
<!-- 8 -->
<g id="node8" class="node">
<title>8</title>
<ellipse fill="none" stroke="black" cx="1351.21" cy="-891.49" rx="21.4" ry="21.4"/>
<text text-anchor="middle" x="1351.21" y="-887.79" font-family="Times,serif" font-size="14.00">G1</text>
</g>
<!-- 49 -->
<g id="node38" class="node">
<title>49</title>
<polygon fill="none" stroke="black" points="1224.54,-946.29 1179.54,-946.29 1179.54,-901.29 1224.54,-901.29 1224.54,-946.29"/>
<text text-anchor="start" x="1187.54" y="-920.99" font-family="Times,serif" font-size="16.00">L1</text>
<text text-anchor="start" x="1206.54" y="-920.99" font-family="Times,serif" baseline-shift="sub" font-size="11.00">10</text>
</g>
<!-- 8&#45;&gt;49 -->
<g id="edge22" class="edge">
<title>8&#45;&gt;49</title>
<path fill="none" stroke="red" stroke-width="2.61" d="M1330.16,-896.05C1305.41,-901.41 1264.04,-910.36 1235.02,-916.65"/>
<polygon fill="red" stroke="red" stroke-width="2.61" points="1233.98,-913.29 1224.95,-918.83 1235.46,-920.13 1233.98,-913.29"/>
</g>
<!-- 9 -->
<g id="node9" class="node">
<title>9</title>
<ellipse fill="none" stroke="black" cx="703.75" cy="-901.3" rx="21.4" ry="21.4"/>
<text text-anchor="middle" x="703.75" y="-897.6" font-family="Times,serif" font-size="14.00">H2</text>
</g>
<!-- 9&#45;&gt;46 -->
<g id="edge40" class="edge">
<title>9&#45;&gt;46</title>
<path fill="none" stroke="green" stroke-width="3.6" d="M712.24,-881.43C721.32,-860.19 735.81,-826.28 746.23,-801.9"/>
<polygon fill="green" stroke="green" stroke-width="3.6" points="749.56,-803 750.28,-792.43 743.13,-800.25 749.56,-803"/>
</g>
<!-- 10 -->
<g id="node10" class="node">
<title>10</title>
<ellipse fill="none" stroke="black" cx="666.12" cy="-730.8" rx="21.4" ry="21.4"/>
<text text-anchor="middle" x="666.12" y="-727.1" font-family="Times,serif" font-size="14.00">A3</text>
</g>
<!-- 10&#45;&gt;41 -->
<g id="edge17" class="edge">
<title>10&#45;&gt;41</title>
<path fill="none" stroke="green" stroke-width="1.16" d="M677.61,-712.56C691.88,-689.88 716.41,-650.91 733.21,-624.22"/>
<polygon fill="green" stroke="green" stroke-width="1.16" points="736.22,-626.01 738.59,-615.68 730.3,-622.28 736.22,-626.01"/>
</g>
<!-- 50 -->
<g id="node39" class="node">
<title>50</title>
<polygon fill="none" stroke="black" points="636.65,-927.73 591.65,-927.73 591.65,-882.73 636.65,-882.73 636.65,-927.73"/>
<text text-anchor="start" x="599.65" y="-902.43" font-family="Times,serif" font-size="16.00">L1</text>
<text text-anchor="start" x="618.65" y="-902.43" font-family="Times,serif" baseline-shift="sub" font-size="11.00">11</text>
</g>
<!-- 10&#45;&gt;50 -->
<g id="edge38" class="edge">
<title>10&#45;&gt;50</title>
<path fill="none" stroke="green" stroke-width="2.3" d="M659.96,-751.5C651.02,-781.47 634.4,-837.27 623.82,-872.76"/>
<polygon fill="green" stroke="green" stroke-width="2.3" points="620.38,-872.05 620.88,-882.63 627.09,-874.05 620.38,-872.05"/>
</g>
<!-- 11 -->
<g id="node11" class="node">
<title>11</title>
<ellipse fill="none" stroke="black" cx="285.7" cy="-652.32" rx="20.6" ry="20.6"/>
<text text-anchor="middle" x="285.7" y="-648.62" font-family="Times,serif" font-size="14.00">B4</text>
</g>
<!-- 11&#45;&gt;56 -->
<g id="edge47" class="edge">
<title>11&#45;&gt;56</title>
<path fill="none" stroke="red" stroke-width="1.74" d="M305.3,-659.29C325.25,-666.37 356.61,-677.52 380.98,-686.17"/>
<polygon fill="red" stroke="red" stroke-width="1.74" points="380.01,-689.54 390.6,-689.59 382.35,-682.95 380.01,-689.54"/>
</g>
<!-- 12 -->
<g id="node12" class="node">
<title>12</title>
<ellipse fill="none" stroke="black" cx="822.11" cy="-625.99" rx="20.6" ry="20.6"/>
<text text-anchor="middle" x="822.11" y="-622.29" font-family="Times,serif" font-size="14.00">C5</text>
</g>
<!-- 12&#45;&gt;46 -->
<g id="edge52" class="edge">
<title>12&#45;&gt;46</title>
<path fill="none" stroke="green" stroke-width="9.63" d="M813.84,-645.12C803.07,-670.04 784.14,-713.85 771.55,-742.98"/>
<polygon fill="green" stroke="green" stroke-width="9.63" points="763.77,-739.73 767.54,-752.25 779.25,-746.41 763.77,-739.73"/>
</g>
<!-- 59 -->
<g id="node46" class="node">
<title>59</title>
<polygon fill="none" stroke="black" points="872.93,-534.39 832.93,-508.39 872.93,-482.39 912.93,-508.39 872.93,-534.39"/>
<text text-anchor="start" x="860.93" y="-505.59" font-family="Times,serif" font-size="16.00">L2</text>
<text text-anchor="start" x="879.93" y="-505.59" font-family="Times,serif" baseline-shift="sub" font-size="11.00">4</text>
</g>
<!-- 12&#45;&gt;59 -->
<g id="edge18" class="edge">
<title>12&#45;&gt;59</title>
<path fill="none" stroke="red" stroke-width="2.75" d="M834.83,-609.38C844.44,-591.8 856.94,-563.66 865.16,-541.53"/>
<polygon fill="red" stroke="red" stroke-width="2.75" points="868.55,-542.44 868.62,-531.85 861.96,-540.09 868.55,-542.44"/>
</g>
<!-- 12&#45;&gt;59 -->
<g id="edge35" class="edge">
<title>12&#45;&gt;59</title>
<path fill="none" stroke="green" stroke-width="5.81" d="M825.49,-605.34C831.86,-585.83 844.23,-556.51 854.89,-535.21"/>
<polygon fill="green" stroke="green" stroke-width="5.81" points="859.55,-537.27 859.64,-526.06 850.52,-532.59 859.55,-537.27"/>
</g>
<!-- 13 -->
<g id="node13" class="node">
<title>13</title>
<ellipse fill="none" stroke="black" cx="740.4" cy="-467.56" rx="21.4" ry="21.4"/>
<text text-anchor="middle" x="740.4" y="-463.86" font-family="Times,serif" font-size="14.00">D6</text>
</g>
<!-- 13&#45;&gt;41 -->
<g id="edge21" class="edge">
<title>13&#45;&gt;41</title>
<path fill="none" stroke="green" stroke-width="6.77" d="M742.22,-488.98C743.99,-509.83 746.7,-541.73 748.7,-565.19"/>
<polygon fill="green" stroke="green" stroke-width="6.77" points="742.8,-565.84 749.56,-575.31 754.61,-564.84 742.8,-565.84"/>
</g>
<!-- 14 -->
<g id="node14" class="node">
<title>14</title>
<ellipse fill="none" stroke="black" cx="1112.11" cy="-580.93" rx="20.6" ry="20.6"/>
<text text-anchor="middle" x="1112.11" y="-577.23" font-family="Times,serif" font-size="14.00">E7</text>
</g>
<!-- 51 -->
<g id="node40" class="node">
<title>51</title>
<polygon fill="none" stroke="black" points="996.83,-657.45 951.83,-657.45 951.83,-612.45 996.83,-612.45 996.83,-657.45"/>
<text text-anchor="start" x="959.83" y="-632.15" font-family="Times,serif" font-size="16.00">L1</text>
<text text-anchor="start" x="978.83" y="-632.15" font-family="Times,serif" baseline-shift="sub" font-size="11.00">12</text>
</g>
<!-- 14&#45;&gt;51 -->
<g id="edge34" class="edge">
<title>14&#45;&gt;51</title>
<path fill="none" stroke="green" stroke-width="4.57" d="M1092.67,-588.56C1070.2,-597.36 1032.92,-611.98 1006.2,-622.46"/>
<polygon fill="green" stroke="green" stroke-width="4.57" points="1004.73,-618.74 996.88,-626.11 1007.65,-626.18 1004.73,-618.74"/>
</g>
<!-- 15 -->
<g id="node15" class="node">
<title>15</title>
<ellipse fill="none" stroke="black" cx="955.03" cy="-396.01" rx="20.3" ry="20.3"/>
<text text-anchor="middle" x="955.03" y="-392.31" font-family="Times,serif" font-size="14.00">F8</text>
</g>
<!-- 15&#45;&gt;58 -->
<g id="edge11" class="edge">
<title>15&#45;&gt;58</title>
<path fill="none" stroke="green" stroke-width="5.8" d="M951.47,-375.86C946.22,-346.09 936.33,-289.99 929.97,-253.94"/>
<polygon fill="green" stroke="green" stroke-width="5.8" points="934.93,-252.87 928.2,-243.9 924.94,-254.63 934.93,-252.87"/>
</g>
<!-- 15&#45;&gt;59 -->
<g id="edge30" class="edge">
<title>15&#45;&gt;59</title>
<path fill="none" stroke="green" stroke-width="2.18" d="M942.91,-412.59C929.51,-430.94 907.72,-460.77 892.02,-482.27"/>
<polygon fill="green" stroke="green" stroke-width="2.18" points="888.98,-480.49 885.91,-490.63 894.63,-484.62 888.98,-480.49"/>
</g>
<!-- 16 -->
<g id="node16" class="node">
<title>16</title>
<ellipse fill="none" stroke="black" cx="713.58" cy="-238.5" rx="20.6" ry="20.6"/>
<text text-anchor="middle" x="713.58" y="-234.8" font-family="Times,serif" font-size="14.00">E1</text>
</g>
<!-- 16&#45;&gt;45 -->
<g id="edge2" class="edge">
<title>16&#45;&gt;45</title>
<path fill="none" stroke="green" stroke-width="7.88" d="M729.89,-251.75C751.42,-269.22 789.65,-300.26 816.01,-321.64"/>
<polygon fill="green" stroke="green" stroke-width="7.88" points="812,-327.27 824.11,-328.22 820.69,-316.56 812,-327.27"/>
</g>
<!-- 55 -->
<g id="node42" class="node">
<title>55</title>
<polygon fill="none" stroke="black" points="563.89,-214.68 523.89,-188.68 563.89,-162.68 603.89,-188.68 563.89,-214.68"/>
<text text-anchor="start" x="551.89" y="-185.88" font-family="Times,serif" font-size="16.00">L2</text>
<text text-anchor="start" x="570.89" y="-185.88" font-family="Times,serif" baseline-shift="sub" font-size="11.00">0</text>
</g>
<!-- 16&#45;&gt;55 -->
<g id="edge41" class="edge">
<title>16&#45;&gt;55</title>
<path fill="none" stroke="red" stroke-width="1.8" d="M693.7,-231.89C669.84,-223.94 629.35,-210.47 599.93,-200.68"/>
<polygon fill="red" stroke="red" stroke-width="1.8" points="601.01,-197.35 590.42,-197.51 598.8,-203.99 601.01,-197.35"/>
</g>
<!-- 17 -->
<g id="node17" class="node">
<title>17</title>
<ellipse fill="none" stroke="black" cx="289.49" cy="-791.02" rx="20.3" ry="20.3"/>
<text text-anchor="middle" x="289.49" y="-787.32" font-family="Times,serif" font-size="14.00">F2</text>
</g>
<!-- 17&#45;&gt;56 -->
<g id="edge3" class="edge">
<title>17&#45;&gt;56</title>
<path fill="none" stroke="red" stroke-width="1.63" d="M305.86,-779.16C326.96,-763.87 363.94,-737.07 389.34,-718.67"/>
<polygon fill="red" stroke="red" stroke-width="1.63" points="391.43,-721.48 397.47,-712.78 387.32,-715.81 391.43,-721.48"/>
</g>
<!-- 17&#45;&gt;57 -->
<g id="edge56" class="edge">
<title>17&#45;&gt;57</title>
<path fill="none" stroke="red" stroke-width="5.32" d="M270.12,-797.47C249.02,-804.5 214.79,-815.9 188.64,-824.61"/>
<polygon fill="red" stroke="red" stroke-width="5.32" points="187.07,-820.22 179.06,-827.8 190.02,-829.05 187.07,-820.22"/>
</g>
<!-- 18 -->
<g id="node18" class="node">
<title>18</title>
<ellipse fill="none" stroke="black" cx="373.81" cy="-1184.88" rx="21.4" ry="21.4"/>
<text text-anchor="middle" x="373.81" y="-1181.18" font-family="Times,serif" font-size="14.00">G3</text>
</g>
<!-- 40 -->
<g id="node29" class="node">
<title>40</title>
<polygon fill="none" stroke="black" points="448.44,-1276.33 408.44,-1276.33 408.44,-1236.33 448.44,-1236.33 448.44,-1276.33"/>
<text text-anchor="start" x="416.44" y="-1253.53" font-family="Times,serif" font-size="16.00">L1</text>
<text text-anchor="start" x="435.44" y="-1253.53" font-family="Times,serif" baseline-shift="sub" font-size="11.00">1</text>
</g>
<!-- 18&#45;&gt;40 -->
<g id="edge51" class="edge">
<title>18&#45;&gt;40</title>
<path fill="none" stroke="green" stroke-width="8.01" d="M387.04,-1202.18C392.97,-1209.94 400.13,-1219.3 406.81,-1228.04"/>
<polygon fill="green" stroke="green" stroke-width="8.01" points="401.38,-1232.47 413.01,-1236.16 412.5,-1223.96 401.38,-1232.47"/>
</g>
<!-- 47 -->
<g id="node36" class="node">
<title>47</title>
<polygon fill="none" stroke="black" points="364,-1120 324,-1120 324,-1080 364,-1080 364,-1120"/>
<text text-anchor="start" x="332" y="-1097.2" font-family="Times,serif" font-size="16.00">L1</text>
<text text-anchor="start" x="351" y="-1097.2" font-family="Times,serif" baseline-shift="sub" font-size="11.00">8</text>
</g>
<!-- 18&#45;&gt;47 -->
<g id="edge49" class="edge">
<title>18&#45;&gt;47</title>
<path fill="none" stroke="green" stroke-width="2.14" d="M366.6,-1164.33C362.94,-1153.93 358.44,-1141.12 354.42,-1129.68"/>
<polygon fill="green" stroke="green" stroke-width="2.14" points="357.66,-1128.34 351.05,-1120.06 351.06,-1130.66 357.66,-1128.34"/>
</g>
<!-- 19 -->
<g id="node19" class="node">
<title>19</title>
<ellipse fill="none" stroke="black" cx="1294.34" cy="-1032.72" rx="21.4" ry="21.4"/>
<text text-anchor="middle" x="1294.34" y="-1029.02" font-family="Times,serif" font-size="14.00">H4</text>
</g>
<!-- 19&#45;&gt;49 -->
<g id="edge39" class="edge">
<title>19&#45;&gt;49</title>
<path fill="none" stroke="green" stroke-width="5.32" d="M1280.32,-1016.18C1266.43,-999.78 1244.83,-974.29 1227.84,-954.23"/>
<polygon fill="green" stroke="green" stroke-width="5.32" points="1231.36,-951.19 1221.34,-946.57 1224.25,-957.21 1231.36,-951.19"/>
</g>
<!-- 63 -->
<g id="node50" class="node">
<title>63</title>
<polygon fill="none" stroke="black" points="1245.02,-1113.64 1245.02,-1128.55 1226.91,-1139.1 1201.29,-1139.1 1183.18,-1128.55 1183.18,-1113.64 1201.29,-1103.1 1226.91,-1103.1 1245.02,-1113.64"/>
<polygon fill="none" stroke="black" points="1249.01,-1111.34 1249.01,-1130.86 1227.98,-1143.1 1200.22,-1143.1 1179.19,-1130.86 1179.19,-1111.34 1200.22,-1099.1 1227.98,-1099.1 1249.01,-1111.34"/>
<polygon fill="none" stroke="black" points="1253.01,-1109.04 1253.01,-1133.16 1229.06,-1147.1 1199.14,-1147.1 1175.19,-1133.16 1175.19,-1109.04 1199.14,-1095.1 1229.06,-1095.1 1253.01,-1109.04"/>
<text text-anchor="middle" x="1214.1" y="-1117.4" font-family="Times,serif" font-size="14.00">OUT</text>
</g>
<!-- 19&#45;&gt;63 -->
<g id="edge24" class="edge">
<title>19&#45;&gt;63</title>
<path fill="none" stroke="green" stroke-width="7.74" d="M1279.62,-1048.93C1269.01,-1060.62 1254.37,-1076.75 1241.62,-1090.79"/>
<polygon fill="green" stroke="green" stroke-width="7.74" points="1236.47,-1086.38 1234.77,-1098.34 1246.51,-1095.49 1236.47,-1086.38"/>
</g>
<!-- 22 -->
<g id="node20" class="node">
<title>22</title>
<ellipse fill="none" stroke="black" cx="901.03" cy="-690.19" rx="20.6" ry="20.6"/>
<text text-anchor="middle" x="901.03" y="-686.49" font-family="Times,serif" font-size="14.00">C7</text>
</g>
<!-- 22&#45;&gt;41 -->
<g id="edge55" class="edge">
<title>22&#45;&gt;41</title>
<path fill="none" stroke="red" stroke-width="4.65" d="M883.26,-678.96C857.73,-662.82 810.4,-632.9 779.9,-613.62"/>
<polygon fill="red" stroke="red" stroke-width="4.65" points="782.03,-610.15 771.4,-608.25 777.68,-617.03 782.03,-610.15"/>
</g>
<!-- 42 -->
<g id="node31" class="node">
<title>42</title>
<polygon fill="none" stroke="black" points="1100.75,-674.86 1060.75,-674.86 1060.75,-634.86 1100.75,-634.86 1100.75,-674.86"/>
<text text-anchor="start" x="1068.75" y="-652.06" font-family="Times,serif" font-size="16.00">L1</text>
<text text-anchor="start" x="1087.75" y="-652.06" font-family="Times,serif" baseline-shift="sub" font-size="11.00">3</text>
</g>
<!-- 22&#45;&gt;42 -->
<g id="edge36" class="edge">
<title>22&#45;&gt;42</title>
<path fill="none" stroke="green" stroke-width="7.22" d="M921.64,-686.13C953.28,-679.92 1013.97,-667.98 1050.57,-660.79"/>
<polygon fill="green" stroke="green" stroke-width="7.22" points="1052.06,-666.94 1060.65,-658.81 1049.62,-654.54 1052.06,-666.94"/>
</g>
<!-- 62 -->
<g id="node49" class="node">
<title>62</title>
<polygon fill="none" stroke="black" points="898.28,-812.61 858.28,-786.61 898.28,-760.61 938.28,-786.61 898.28,-812.61"/>
<text text-anchor="start" x="886.28" y="-783.81" font-family="Times,serif" font-size="16.00">L2</text>
<text text-anchor="start" x="905.28" y="-783.81" font-family="Times,serif" baseline-shift="sub" font-size="11.00">7</text>
</g>
<!-- 22&#45;&gt;62 -->
<g id="edge23" class="edge">
<title>22&#45;&gt;62</title>
<path fill="none" stroke="green" stroke-width="1.23" d="M900.43,-711.11C900.1,-722.65 899.69,-737.29 899.31,-750.61"/>
<polygon fill="green" stroke="green" stroke-width="1.23" points="895.8,-750.82 899.01,-760.92 902.8,-751.02 895.8,-750.82"/>
</g>
<!-- 24 -->
<g id="node21" class="node">
<title>24</title>
<ellipse fill="none" stroke="black" cx="510.8" cy="-1023.12" rx="20.6" ry="20.6"/>
<text text-anchor="middle" x="510.8" y="-1019.42" font-family="Times,serif" font-size="14.00">C1</text>
</g>
<!-- 24&#45;&gt;50 -->
<g id="edge28" class="edge">
<title>24&#45;&gt;50</title>
<path fill="none" stroke="green" stroke-width="8.78" d="M524.73,-1007.22C540.7,-989 567.24,-958.73 587.27,-935.88"/>
<polygon fill="green" stroke="green" stroke-width="8.78" points="593.24,-940.73 594.06,-928.15 581.69,-930.6 593.24,-940.73"/>
</g>
<!-- 31 -->
<g id="node22" class="node">
<title>31</title>
<ellipse fill="none" stroke="black" cx="1008.79" cy="-1235.22" rx="20.6" ry="20.6"/>
<text text-anchor="middle" x="1008.79" y="-1231.52" font-family="Times,serif" font-size="14.00">B8</text>
</g>
<!-- 39 -->
<g id="node28" class="node">
<title>39</title>
<polygon fill="none" stroke="black" points="1085.07,-1106.99 1045.07,-1106.99 1045.07,-1066.99 1085.07,-1066.99 1085.07,-1106.99"/>
<text text-anchor="start" x="1053.07" y="-1084.19" font-family="Times,serif" font-size="16.00">L1</text>
<text text-anchor="start" x="1072.07" y="-1084.19" font-family="Times,serif" baseline-shift="sub" font-size="11.00">0</text>
</g>
<!-- 31&#45;&gt;39 -->
<g id="edge10" class="edge">
<title>31&#45;&gt;39</title>
<path fill="none" stroke="red" stroke-width="7.64" d="M1016.26,-1215.54C1025.88,-1190.21 1042.67,-1145.97 1053.84,-1116.58"/>
<polygon fill="red" stroke="red" stroke-width="7.64" points="1060.09,-1118.95 1057.39,-1107.23 1047.59,-1114.21 1060.09,-1118.95"/>
</g>
<!-- 48 -->
<g id="node37" class="node">
<title>48</title>
<polygon fill="none" stroke="black" points="1044.95,-1400.05 1004.95,-1400.05 1004.95,-1360.05 1044.95,-1360.05 1044.95,-1400.05"/>
<text text-anchor="start" x="1012.95" y="-1377.25" font-family="Times,serif" font-size="16.00">L1</text>
<text text-anchor="start" x="1031.95" y="-1377.25" font-family="Times,serif" baseline-shift="sub" font-size="11.00">9</text>
</g>
<!-- 31&#45;&gt;48 -->
<g id="edge29" class="edge">
<title>31&#45;&gt;48</title>
<path fill="none" stroke="red" stroke-width="2.19" d="M1011.1,-1255.98C1013.84,-1280.53 1018.43,-1321.61 1021.56,-1349.73"/>
<polygon fill="red" stroke="red" stroke-width="2.19" points="1018.1,-1350.26 1022.69,-1359.81 1025.06,-1349.48 1018.1,-1350.26"/>
</g>
<!-- 32 -->
<g id="node23" class="node">
<title>32</title>
<ellipse fill="none" stroke="black" cx="588.37" cy="-561.54" rx="21.39" ry="21.39"/>
<ellipse fill="none" stroke="black" cx="588.37" cy="-561.54" rx="25.43" ry="25.43"/>
<text text-anchor="start" x="581.37" y="-558.74" font-family="Times,serif" font-size="16.00">b</text>
<text text-anchor="start" x="590.37" y="-558.74" font-family="Times,serif" baseline-shift="sub" font-size="11.00">0</text>
</g>
<!-- 32&#45;&gt;41 -->
<g id="edge14" class="edge">
<title>32&#45;&gt;41</title>
<path fill="none" stroke="green" stroke-width="7.05" d="M613.11,-566.71C642.06,-572.74 689.98,-582.74 721.09,-589.23"/>
<polygon fill="green" stroke="green" stroke-width="7.05" points="719.89,-595.28 730.94,-591.29 722.41,-583.21 719.89,-595.28"/>
</g>
<!-- 32&#45;&gt;53 -->
<g id="edge50" class="edge">
<title>32&#45;&gt;53</title>
<path fill="none" stroke="green" stroke-width="1.64" d="M563.32,-557.86C539.03,-554.29 502.06,-548.85 475.44,-544.94"/>
<polygon fill="green" stroke="green" stroke-width="1.64" points="475.84,-541.46 465.44,-543.47 474.82,-548.38 475.84,-541.46"/>
</g>
<!-- 33 -->
<g id="node24" class="node">
<title>33</title>
<ellipse fill="none" stroke="black" cx="1058.25" cy="-941.13" rx="21.39" ry="21.39"/>
<ellipse fill="none" stroke="black" cx="1058.25" cy="-941.13" rx="25.43" ry="25.43"/>
<text text-anchor="start" x="1051.25" y="-938.33" font-family="Times,serif" font-size="16.00">b</text>
<text text-anchor="start" x="1060.25" y="-938.33" font-family="Times,serif" baseline-shift="sub" font-size="11.00">1</text>
</g>
<!-- 33&#45;&gt;39 -->
<g id="edge31" class="edge">
<title>33&#45;&gt;39</title>
<path fill="none" stroke="red" stroke-width="6.24" d="M1059.44,-966.54C1060.61,-991.5 1062.39,-1029.63 1063.63,-1056.28"/>
<polygon fill="red" stroke="red" stroke-width="6.24" points="1058.19,-1056.84 1064.12,-1066.58 1069.11,-1056.33 1058.19,-1056.84"/>
</g>
<!-- 33&#45;&gt;49 -->
<g id="edge32" class="edge">
<title>33&#45;&gt;49</title>
<path fill="none" stroke="red" stroke-width="7.56" d="M1083.3,-938.11C1107.06,-935.25 1142.91,-930.92 1169.01,-927.78"/>
<polygon fill="red" stroke="red" stroke-width="7.56" points="1170.04,-934.32 1179.18,-926.55 1168.46,-921.18 1170.04,-934.32"/>
</g>
<!-- 33&#45;&gt;62 -->
<g id="edge20" class="edge">
<title>33&#45;&gt;62</title>
<path fill="none" stroke="red" stroke-width="4.01" d="M1039.9,-923.41C1010.72,-895.23 953.79,-840.23 921.71,-809.24"/>
<polygon fill="red" stroke="red" stroke-width="4.01" points="924.13,-806.7 914.5,-802.28 919.26,-811.75 924.13,-806.7"/>
</g>
<!-- 35 -->
<g id="node25" class="node">
<title>35</title>
<ellipse fill="none" stroke="black" cx="725.42" cy="-1018.03" rx="21.39" ry="21.39"/>
<ellipse fill="none" stroke="black" cx="725.42" cy="-1018.03" rx="25.43" ry="25.43"/>
<text text-anchor="start" x="718.42" y="-1015.23" font-family="Times,serif" font-size="16.00">b</text>
<text text-anchor="start" x="727.42" y="-1015.23" font-family="Times,serif" baseline-shift="sub" font-size="11.00">3</text>
</g>
<!-- 44 -->
<g id="node33" class="node">
<title>44</title>
<polygon fill="none" stroke="black" points="866.79,-952.17 826.79,-952.17 826.79,-912.17 866.79,-912.17 866.79,-952.17"/>
<text text-anchor="start" x="834.79" y="-929.37" font-family="Times,serif" font-size="16.00">L1</text>
<text text-anchor="start" x="853.79" y="-929.37" font-family="Times,serif" baseline-shift="sub" font-size="11.00">5</text>
</g>
<!-- 35&#45;&gt;44 -->
<g id="edge12" class="edge">
<title>35&#45;&gt;44</title>
<path fill="none" stroke="red" stroke-width="5.97" d="M746.01,-1003.46C765.83,-989.44 795.98,-968.11 818.14,-952.43"/>
<polygon fill="red" stroke="red" stroke-width="5.97" points="821.36,-956.55 826.5,-946.52 815.33,-948.03 821.36,-956.55"/>
</g>
<!-- 35&#45;&gt;50 -->
<g id="edge33" class="edge">
<title>35&#45;&gt;50</title>
<path fill="none" stroke="red" stroke-width="2.71" d="M707.54,-999.9C690.36,-982.49 664.09,-955.85 643.78,-935.26"/>
<polygon fill="red" stroke="red" stroke-width="2.71" points="646.11,-932.64 636.59,-927.98 641.12,-937.56 646.11,-932.64"/>
</g>
<!-- 36 -->
<g id="node26" class="node">
<title>36</title>
<ellipse fill="none" stroke="black" cx="977.77" cy="-867.88" rx="21.39" ry="21.39"/>
<ellipse fill="none" stroke="black" cx="977.77" cy="-867.88" rx="25.43" ry="25.43"/>
<text text-anchor="start" x="970.77" y="-865.08" font-family="Times,serif" font-size="16.00">b</text>
<text text-anchor="start" x="979.77" y="-865.08" font-family="Times,serif" baseline-shift="sub" font-size="11.00">4</text>
</g>
<!-- 36&#45;&gt;62 -->
<g id="edge6" class="edge">
<title>36&#45;&gt;62</title>
<path fill="none" stroke="red" stroke-width="5.83" d="M960.13,-849.84C948.69,-838.15 933.67,-822.79 921.29,-810.14"/>
<polygon fill="red" stroke="red" stroke-width="5.83" points="924.63,-806.25 913.99,-802.67 917.33,-813.38 924.63,-806.25"/>
</g>
<!-- 37 -->
<g id="node27" class="node">
<title>37</title>
<ellipse fill="none" stroke="black" cx="1237.25" cy="-604.06" rx="21.39" ry="21.39"/>
<ellipse fill="none" stroke="black" cx="1237.25" cy="-604.06" rx="25.43" ry="25.43"/>
<text text-anchor="start" x="1230.25" y="-601.26" font-family="Times,serif" font-size="16.00">b</text>
<text text-anchor="start" x="1239.25" y="-601.26" font-family="Times,serif" baseline-shift="sub" font-size="11.00">5</text>
</g>
<!-- 37&#45;&gt;42 -->
<g id="edge27" class="edge">
<title>37&#45;&gt;42</title>
<path fill="none" stroke="red" stroke-width="1.24" d="M1213.14,-611.89C1185.68,-620.8 1140.78,-635.37 1111,-645.04"/>
<polygon fill="red" stroke="red" stroke-width="1.24" points="1109.58,-641.82 1101.15,-648.24 1111.74,-648.48 1109.58,-641.82"/>
</g>
<!-- 61 -->
<g id="node48" class="node">
<title>61</title>
<polygon fill="none" stroke="black" points="1126.82,-1230.22 1086.82,-1204.22 1126.82,-1178.22 1166.82,-1204.22 1126.82,-1230.22"/>
<text text-anchor="start" x="1114.82" y="-1201.42" font-family="Times,serif" font-size="16.00">L2</text>
<text text-anchor="start" x="1133.82" y="-1201.42" font-family="Times,serif" baseline-shift="sub" font-size="11.00">6</text>
</g>
<!-- 39&#45;&gt;61 -->
<g id="edge15" class="edge">
<title>39&#45;&gt;61</title>
<path fill="none" stroke="red" stroke-width="5.88" d="M1075.69,-1107.14C1085.66,-1126.08 1100.68,-1154.59 1111.86,-1175.83"/>
<polygon fill="red" stroke="red" stroke-width="5.88" points="1107.34,-1178.27 1116.55,-1184.72 1116.44,-1173.48 1107.34,-1178.27"/>
</g>
<!-- 39&#45;&gt;63 -->
<g id="edge13" class="edge">
<title>39&#45;&gt;63</title>
<path fill="none" stroke="red" stroke-width="2.15" d="M1085.17,-1091.59C1105.62,-1096.27 1138.09,-1103.7 1165.33,-1109.94"/>
<polygon fill="red" stroke="red" stroke-width="2.15" points="1164.57,-1113.35 1175.1,-1112.17 1166.13,-1106.53 1164.57,-1113.35"/>
</g>
<!-- 41&#45;&gt;59 -->
<g id="edge42" class="edge">
<title>41&#45;&gt;59</title>
<path fill="none" stroke="green" stroke-width="4.3" d="M771.36,-581.14C791.59,-566.65 822.94,-544.2 845.46,-528.07"/>
<polygon fill="green" stroke="green" stroke-width="4.3" points="847.68,-531.11 853.62,-522.23 843.3,-524.99 847.68,-531.11"/>
</g>
<!-- 43&#45;&gt;55 -->
<g id="edge53" class="edge">
<title>43&#45;&gt;55</title>
<path fill="none" stroke="red" stroke-width="4.98" d="M439.41,-236.83C462.6,-227.86 501.11,-212.97 529.17,-202.11"/>
<polygon fill="red" stroke="red" stroke-width="4.98" points="530.86,-206.13 538.61,-198.46 527.71,-198 530.86,-206.13"/>
</g>
<!-- 44&#45;&gt;62 -->
<g id="edge1" class="edge">
<title>44&#45;&gt;62</title>
<path fill="none" stroke="green" stroke-width="1.94" d="M853.95,-911.93C862.6,-887.47 877.25,-846.06 887.32,-817.58"/>
<polygon fill="green" stroke="green" stroke-width="1.94" points="890.65,-818.69 890.68,-808.1 884.05,-816.36 890.65,-818.69"/>
</g>
<!-- 45&#45;&gt;59 -->
<g id="edge25" class="edge">
<title>45&#45;&gt;59</title>
<path fill="none" stroke="red" stroke-width="6.78" d="M847.99,-364.84C852.76,-392.25 861.36,-441.78 867.11,-474.88"/>
<polygon fill="red" stroke="red" stroke-width="6.78" points="861.31,-476.16 868.87,-485 873,-474.13 861.31,-476.16"/>
</g>
<!-- 46&#45;&gt;62 -->
<g id="edge54" class="edge">
<title>46&#45;&gt;62</title>
<path fill="none" stroke="green" stroke-width="2.11" d="M779.14,-774.4C798.59,-776.39 828.61,-779.47 853.65,-782.04"/>
<polygon fill="green" stroke="green" stroke-width="2.11" points="853.38,-785.53 863.68,-783.06 854.09,-778.56 853.38,-785.53"/>
</g>
<!-- 51&#45;&gt;59 -->
<g id="edge45" class="edge">
<title>51&#45;&gt;59</title>
<path fill="none" stroke="green" stroke-width="6.68" d="M956.2,-612.33C938.45,-590.16 911.45,-556.46 893.04,-533.49"/>
<polygon fill="green" stroke="green" stroke-width="6.68" points="897.49,-529.7 886.68,-525.55 888.37,-537.01 897.49,-529.7"/>
</g>
<!-- 51&#45;&gt;62 -->
<g id="edge26" class="edge">
<title>51&#45;&gt;62</title>
<path fill="none" stroke="red" stroke-width="1.48" d="M962.95,-657.66C949.62,-684.23 927.52,-728.31 912.92,-757.41"/>
<polygon fill="red" stroke="red" stroke-width="1.48" points="909.64,-756.15 908.29,-766.66 915.9,-759.29 909.64,-756.15"/>
</g>
<!-- 53&#45;&gt;56 -->
<g id="edge4" class="edge">
<title>53&#45;&gt;56</title>
<path fill="none" stroke="green" stroke-width="6.8" d="M433.91,-562.74C427.48,-588.93 420.13,-632.41 416.74,-663.18"/>
<polygon fill="green" stroke="green" stroke-width="6.8" points="410.78,-662.94 415.72,-673.48 422.63,-664.12 410.78,-662.94"/>
</g>
<!-- 53&#45;&gt;56 -->
<g id="edge46" class="edge">
<title>53&#45;&gt;56</title>
<path fill="none" stroke="red" stroke-width="2.78" d="M443.83,-562.63C441.65,-590.32 434.19,-637.42 427.25,-668.34"/>
<polygon fill="red" stroke="red" stroke-width="2.78" points="423.82,-667.62 424.92,-678.15 430.63,-669.23 423.82,-667.62"/>
</g>
</g>
</svg>
