<?xml version="1.0" encoding="UTF-8" standalone="no"?>
<!DOCTYPE svg PUBLIC "-//W3C//DTD SVG 1.1//EN"
 "http://www.w3.org/Graphics/SVG/1.1/DTD/svg11.dtd">
<!-- Generated by graphviz version 2.43.0 (0)
 -->
<!-- Title: network Pages: 1 -->
<svg width="230pt" height="71pt"
 viewBox="0.00 0.00 230.49 70.73" xmlns="http://www.w3.org/2000/svg" xmlns:xlink="http://www.w3.org/1999/xlink">
<g id="graph0" class="graph" transform="scale(1 1) rotate(0) translate(4 66.73)">
<title>network</title>
<polygon fill="white" stroke="transparent" points="-4,4 -4,-66.73 226.49,-66.73 226.49,4 -4,4"/>
<!-- 13 -->
<g id="node1" class="node">
<title>13</title>
<ellipse fill="none" stroke="black" cx="21.45" cy="-38.27" rx="21.4" ry="21.4"/>
<text text-anchor="middle" x="21.45" y="-34.57" font-family="Times,serif" font-size="14.00">D6</text>
</g>
<!-- 63 -->
<g id="node3" class="node">
<title>63</title>
<polygon fill="none" stroke="black" points="142.78,-18.54 142.78,-33.46 124.67,-44 99.05,-44 80.94,-33.46 80.94,-18.54 99.05,-8 124.67,-8 142.78,-18.54"/>
<polygon fill="none" stroke="black" points="146.77,-16.24 146.77,-35.76 125.74,-48 97.98,-48 76.95,-35.76 76.95,-16.24 97.98,-4 125.74,-4 146.77,-16.24"/>
<polygon fill="none" stroke="black" points="150.77,-13.94 150.77,-38.06 126.82,-52 96.9,-52 72.95,-38.06 72.95,-13.94 96.9,0 126.82,0 150.77,-13.94"/>
<text text-anchor="middle" x="111.86" y="-22.3" font-family="Times,serif" font-size="14.00">OUT</text>
</g>
<!-- 13&#45;&gt;63 -->
<g id="edge1" class="edge">
<title>13&#45;&gt;63</title>
<path fill="none" stroke="green" stroke-width="1.02" d="M42.87,-35.36C48.91,-34.54 55.73,-33.61 62.68,-32.67"/>
<polygon fill="green" stroke="green" stroke-width="1.02" points="63.44,-36.1 72.88,-31.29 62.5,-29.16 63.44,-36.1"/>
</g>
<!-- 31 -->
<g id="node2" class="node">
<title>31</title>
<ellipse fill="none" stroke="black" cx="201.69" cy="-41.93" rx="20.6" ry="20.6"/>
<text text-anchor="middle" x="201.69" y="-38.23" font-family="Times,serif" font-size="14.00">B8</text>
</g>
<!-- 31&#45;&gt;63 -->
<g id="edge2" class="edge">
<title>31&#45;&gt;63</title>
<path fill="none" stroke="red" stroke-width="1.17" d="M180.85,-38.24C174.86,-37.17 168.06,-35.97 161.12,-34.74"/>
<polygon fill="red" stroke="red" stroke-width="1.17" points="161.39,-31.23 150.93,-32.93 160.17,-38.12 161.39,-31.23"/>
</g>
</g>
</svg>
